<?xml version="1.0" encoding="UTF-8" standalone="no"?>
<!DOCTYPE svg PUBLIC "-//W3C//DTD SVG 1.1//EN"
 "http://www.w3.org/Graphics/SVG/1.1/DTD/svg11.dtd">
<!-- Generated by graphviz version 2.47.0 (20210316.0004)
 -->
<!-- Title: G Pages: 1 -->
<svg width="1472pt" height="1296pt"
 viewBox="0.00 0.00 1472.20 1296.20" xmlns="http://www.w3.org/2000/svg" xmlns:xlink="http://www.w3.org/1999/xlink">
<g id="graph0" class="graph" transform="scale(1 1) rotate(0) translate(21.6 1274.6)">
<title>G</title>
<polygon fill="#111111" stroke="transparent" points="-21.6,21.6 -21.6,-1274.6 1450.6,-1274.6 1450.6,21.6 -21.6,21.6"/>
<!-- src/implementation/DomainLogicServerless/DomainLogicCheckAlertServerless.ts -->
<g id="node1" class="node">
<title>src/implementation/DomainLogicServerless/DomainLogicCheckAlertServerless.ts</title>
<path fill="none" stroke="#cfffac" d="M546.33,-23C546.33,-23 28.67,-23 28.67,-23 24.83,-23 21,-19.17 21,-15.33 21,-15.33 21,-7.67 21,-7.67 21,-3.83 24.83,0 28.67,0 28.67,0 546.33,0 546.33,0 550.17,0 554,-3.83 554,-7.67 554,-7.67 554,-15.33 554,-15.33 554,-19.17 550.17,-23 546.33,-23"/>
<text text-anchor="middle" x="287.5" y="-7.8" font-family="Arial" font-size="14.00" fill="#cfffac">src/implementation/DomainLogicServerless/DomainLogicCheckAlertServerless.ts</text>
</g>
<!-- src/implementation/DomainLogicServerless/DomainLogicCloseAlertServerless.ts -->
<g id="node2" class="node">
<title>src/implementation/DomainLogicServerless/DomainLogicCloseAlertServerless.ts</title>
<path fill="none" stroke="#c6c5fe" d="M544.83,-351C544.83,-351 30.17,-351 30.17,-351 26.33,-351 22.5,-347.17 22.5,-343.33 22.5,-343.33 22.5,-335.67 22.5,-335.67 22.5,-331.83 26.33,-328 30.17,-328 30.17,-328 544.83,-328 544.83,-328 548.67,-328 552.5,-331.83 552.5,-335.67 552.5,-335.67 552.5,-343.33 552.5,-343.33 552.5,-347.17 548.67,-351 544.83,-351"/>
<text text-anchor="middle" x="287.5" y="-335.8" font-family="Arial" font-size="14.00" fill="#c6c5fe">src/implementation/DomainLogicServerless/DomainLogicCloseAlertServerless.ts</text>
</g>
<!-- src/implementation/Errors/DomainLogicServerless.ts -->
<g id="node3" class="node">
<title>src/implementation/Errors/DomainLogicServerless.ts</title>
<path fill="none" stroke="#cfffac" d="M999.33,-269C999.33,-269 664.67,-269 664.67,-269 660.83,-269 657,-265.17 657,-261.33 657,-261.33 657,-253.67 657,-253.67 657,-249.83 660.83,-246 664.67,-246 664.67,-246 999.33,-246 999.33,-246 1003.17,-246 1007,-249.83 1007,-253.67 1007,-253.67 1007,-261.33 1007,-261.33 1007,-265.17 1003.17,-269 999.33,-269"/>
<text text-anchor="middle" x="832" y="-253.8" font-family="Arial" font-size="14.00" fill="#cfffac">src/implementation/Errors/DomainLogicServerless.ts</text>
</g>
<!-- src/implementation/DomainLogicServerless/DomainLogicCloseAlertServerless.ts&#45;&gt;src/implementation/Errors/DomainLogicServerless.ts -->
<g id="edge1" class="edge">
<title>src/implementation/DomainLogicServerless/DomainLogicCloseAlertServerless.ts&#45;&gt;src/implementation/Errors/DomainLogicServerless.ts</title>
<path fill="none" stroke="#757575" d="M498.61,-328C524.41,-325.44 550.36,-322.31 575,-318.5 647.81,-307.23 730.46,-285.96 781.67,-271.75"/>
<polygon fill="#757575" stroke="#757575" points="782.8,-275.07 791.48,-269.01 780.91,-268.33 782.8,-275.07"/>
</g>
<!-- src/implementation/DomainLogicServerless/DomainLogicCreateAlertServerless.ts -->
<g id="node4" class="node">
<title>src/implementation/DomainLogicServerless/DomainLogicCreateAlertServerless.ts</title>
<path fill="none" stroke="#c6c5fe" d="M547.33,-310C547.33,-310 27.67,-310 27.67,-310 23.83,-310 20,-306.17 20,-302.33 20,-302.33 20,-294.67 20,-294.67 20,-290.83 23.83,-287 27.67,-287 27.67,-287 547.33,-287 547.33,-287 551.17,-287 555,-290.83 555,-294.67 555,-294.67 555,-302.33 555,-302.33 555,-306.17 551.17,-310 547.33,-310"/>
<text text-anchor="middle" x="287.5" y="-294.8" font-family="Arial" font-size="14.00" fill="#c6c5fe">src/implementation/DomainLogicServerless/DomainLogicCreateAlertServerless.ts</text>
</g>
<!-- src/implementation/DomainLogicServerless/DomainLogicCreateAlertServerless.ts&#45;&gt;src/implementation/Errors/DomainLogicServerless.ts -->
<g id="edge2" class="edge">
<title>src/implementation/DomainLogicServerless/DomainLogicCreateAlertServerless.ts&#45;&gt;src/implementation/Errors/DomainLogicServerless.ts</title>
<path fill="none" stroke="#757575" d="M447.25,-287C488.83,-283.95 533.6,-280.63 575,-277.5 607.33,-275.05 641.95,-272.38 674.95,-269.81"/>
<polygon fill="#757575" stroke="#757575" points="675.44,-273.28 685.14,-269.02 674.9,-266.31 675.44,-273.28"/>
</g>
<!-- src/implementation/DomainLogicServerless/DomainLogicCreateServiceServerless.ts -->
<g id="node5" class="node">
<title>src/implementation/DomainLogicServerless/DomainLogicCreateServiceServerless.ts</title>
<path fill="none" stroke="#cfffac" d="M556.83,-433C556.83,-433 18.17,-433 18.17,-433 14.33,-433 10.5,-429.17 10.5,-425.33 10.5,-425.33 10.5,-417.67 10.5,-417.67 10.5,-413.83 14.33,-410 18.17,-410 18.17,-410 556.83,-410 556.83,-410 560.67,-410 564.5,-413.83 564.5,-417.67 564.5,-417.67 564.5,-425.33 564.5,-425.33 564.5,-429.17 560.67,-433 556.83,-433"/>
<text text-anchor="middle" x="287.5" y="-417.8" font-family="Arial" font-size="14.00" fill="#cfffac">src/implementation/DomainLogicServerless/DomainLogicCreateServiceServerless.ts</text>
</g>
<!-- src/implementation/DomainLogicServerless/DomainLogicDeleteServiceServerless.ts -->
<g id="node6" class="node">
<title>src/implementation/DomainLogicServerless/DomainLogicDeleteServiceServerless.ts</title>
<path fill="none" stroke="#cfffac" d="M556.33,-474C556.33,-474 18.67,-474 18.67,-474 14.83,-474 11,-470.17 11,-466.33 11,-466.33 11,-458.67 11,-458.67 11,-454.83 14.83,-451 18.67,-451 18.67,-451 556.33,-451 556.33,-451 560.17,-451 564,-454.83 564,-458.67 564,-458.67 564,-466.33 564,-466.33 564,-470.17 560.17,-474 556.33,-474"/>
<text text-anchor="middle" x="287.5" y="-458.8" font-family="Arial" font-size="14.00" fill="#cfffac">src/implementation/DomainLogicServerless/DomainLogicDeleteServiceServerless.ts</text>
</g>
<!-- src/implementation/DomainLogicServerless/DomainLogicGetServicesServerless.ts -->
<g id="node7" class="node">
<title>src/implementation/DomainLogicServerless/DomainLogicGetServicesServerless.ts</title>
<path fill="none" stroke="#cfffac" d="M550.83,-515C550.83,-515 24.17,-515 24.17,-515 20.33,-515 16.5,-511.17 16.5,-507.33 16.5,-507.33 16.5,-499.67 16.5,-499.67 16.5,-495.83 20.33,-492 24.17,-492 24.17,-492 550.83,-492 550.83,-492 554.67,-492 558.5,-495.83 558.5,-499.67 558.5,-499.67 558.5,-507.33 558.5,-507.33 558.5,-511.17 554.67,-515 550.83,-515"/>
<text text-anchor="middle" x="287.5" y="-499.8" font-family="Arial" font-size="14.00" fill="#cfffac">src/implementation/DomainLogicServerless/DomainLogicGetServicesServerless.ts</text>
</g>
<!-- src/implementation/DomainLogicServerless/DomainLogicModifyServiceServerless.ts -->
<g id="node8" class="node">
<title>src/implementation/DomainLogicServerless/DomainLogicModifyServiceServerless.ts</title>
<path fill="none" stroke="#c6c5fe" d="M556.33,-269C556.33,-269 18.67,-269 18.67,-269 14.83,-269 11,-265.17 11,-261.33 11,-261.33 11,-253.67 11,-253.67 11,-249.83 14.83,-246 18.67,-246 18.67,-246 556.33,-246 556.33,-246 560.17,-246 564,-249.83 564,-253.67 564,-253.67 564,-261.33 564,-261.33 564,-265.17 560.17,-269 556.33,-269"/>
<text text-anchor="middle" x="287.5" y="-253.8" font-family="Arial" font-size="14.00" fill="#c6c5fe">src/implementation/DomainLogicServerless/DomainLogicModifyServiceServerless.ts</text>
</g>
<!-- src/implementation/DomainLogicServerless/DomainLogicModifyServiceServerless.ts&#45;&gt;src/implementation/Errors/DomainLogicServerless.ts -->
<g id="edge3" class="edge">
<title>src/implementation/DomainLogicServerless/DomainLogicModifyServiceServerless.ts&#45;&gt;src/implementation/Errors/DomainLogicServerless.ts</title>
<path fill="none" stroke="#757575" d="M564.12,-257.5C592.12,-257.5 620.05,-257.5 646.73,-257.5"/>
<polygon fill="#757575" stroke="#757575" points="646.89,-261 656.89,-257.5 646.89,-254 646.89,-261"/>
</g>
<!-- src/implementation/DomainLogicServerless/DomainLogicNotifyPersonServerless.ts -->
<g id="node9" class="node">
<title>src/implementation/DomainLogicServerless/DomainLogicNotifyPersonServerless.ts</title>
<path fill="none" stroke="#c6c5fe" d="M552.33,-392C552.33,-392 22.67,-392 22.67,-392 18.83,-392 15,-388.17 15,-384.33 15,-384.33 15,-376.67 15,-376.67 15,-372.83 18.83,-369 22.67,-369 22.67,-369 552.33,-369 552.33,-369 556.17,-369 560,-372.83 560,-376.67 560,-376.67 560,-384.33 560,-384.33 560,-388.17 556.17,-392 552.33,-392"/>
<text text-anchor="middle" x="287.5" y="-376.8" font-family="Arial" font-size="14.00" fill="#c6c5fe">src/implementation/DomainLogicServerless/DomainLogicNotifyPersonServerless.ts</text>
</g>
<!-- src/implementation/DomainLogicServerless/DomainLogicNotifyPersonServerless.ts&#45;&gt;src/implementation/Errors/DomainLogicServerless.ts -->
<g id="edge5" class="edge">
<title>src/implementation/DomainLogicServerless/DomainLogicNotifyPersonServerless.ts&#45;&gt;src/implementation/Errors/DomainLogicServerless.ts</title>
<path fill="none" stroke="#757575" d="M524.67,-368.98C541.79,-366.37 558.72,-363.25 575,-359.5 659.4,-340.08 752.45,-297.12 799.71,-273.62"/>
<polygon fill="#757575" stroke="#757575" points="801.44,-276.67 808.81,-269.06 798.3,-270.41 801.44,-276.67"/>
</g>
<!-- src/implementation/DomainLogicServerless/DomainLogicTexts.ts -->
<g id="node10" class="node">
<title>src/implementation/DomainLogicServerless/DomainLogicTexts.ts</title>
<path fill="none" stroke="#cfffac" d="M1039.33,-392C1039.33,-392 624.67,-392 624.67,-392 620.83,-392 617,-388.17 617,-384.33 617,-384.33 617,-376.67 617,-376.67 617,-372.83 620.83,-369 624.67,-369 624.67,-369 1039.33,-369 1039.33,-369 1043.17,-369 1047,-372.83 1047,-376.67 1047,-376.67 1047,-384.33 1047,-384.33 1047,-388.17 1043.17,-392 1039.33,-392"/>
<text text-anchor="middle" x="832" y="-376.8" font-family="Arial" font-size="14.00" fill="#cfffac">src/implementation/DomainLogicServerless/DomainLogicTexts.ts</text>
</g>
<!-- src/implementation/DomainLogicServerless/DomainLogicNotifyPersonServerless.ts&#45;&gt;src/implementation/DomainLogicServerless/DomainLogicTexts.ts -->
<g id="edge4" class="edge">
<title>src/implementation/DomainLogicServerless/DomainLogicNotifyPersonServerless.ts&#45;&gt;src/implementation/DomainLogicServerless/DomainLogicTexts.ts</title>
<path fill="none" stroke="#757575" d="M560.15,-380.5C575.78,-380.5 591.41,-380.5 606.82,-380.5"/>
<polygon fill="#757575" stroke="#757575" points="606.92,-384 616.92,-380.5 606.92,-377 606.92,-384"/>
</g>
<!-- src/implementation/DomainLogicServerless/DomainLogicReceiveTimeoutServerless.ts -->
<g id="node11" class="node">
<title>src/implementation/DomainLogicServerless/DomainLogicReceiveTimeoutServerless.ts</title>
<path fill="none" stroke="#c6c5fe" d="M563.33,-597C563.33,-597 11.67,-597 11.67,-597 7.83,-597 4,-593.17 4,-589.33 4,-589.33 4,-581.67 4,-581.67 4,-577.83 7.83,-574 11.67,-574 11.67,-574 563.33,-574 563.33,-574 567.17,-574 571,-577.83 571,-581.67 571,-581.67 571,-589.33 571,-589.33 571,-593.17 567.17,-597 563.33,-597"/>
<text text-anchor="middle" x="287.5" y="-581.8" font-family="Arial" font-size="14.00" fill="#c6c5fe">src/implementation/DomainLogicServerless/DomainLogicReceiveTimeoutServerless.ts</text>
</g>
<!-- src/implementation/DomainLogicServerless/FunctionsToReceive.ts -->
<g id="node12" class="node">
<title>src/implementation/DomainLogicServerless/FunctionsToReceive.ts</title>
<path fill="none" stroke="#cfffac" d="M1045.33,-576C1045.33,-576 618.67,-576 618.67,-576 614.83,-576 611,-572.17 611,-568.33 611,-568.33 611,-560.67 611,-560.67 611,-556.83 614.83,-553 618.67,-553 618.67,-553 1045.33,-553 1045.33,-553 1049.17,-553 1053,-556.83 1053,-560.67 1053,-560.67 1053,-568.33 1053,-568.33 1053,-572.17 1049.17,-576 1045.33,-576"/>
<text text-anchor="middle" x="832" y="-560.8" font-family="Arial" font-size="14.00" fill="#cfffac">src/implementation/DomainLogicServerless/FunctionsToReceive.ts</text>
</g>
<!-- src/implementation/DomainLogicServerless/DomainLogicReceiveTimeoutServerless.ts&#45;&gt;src/implementation/DomainLogicServerless/FunctionsToReceive.ts -->
<g id="edge6" class="edge">
<title>src/implementation/DomainLogicServerless/DomainLogicReceiveTimeoutServerless.ts&#45;&gt;src/implementation/DomainLogicServerless/FunctionsToReceive.ts</title>
<path fill="none" stroke="#757575" d="M571.27,-574.55C581.1,-574.17 590.91,-573.79 600.65,-573.42"/>
<polygon fill="#757575" stroke="#757575" points="600.91,-576.91 610.77,-573.03 600.64,-569.91 600.91,-576.91"/>
</g>
<!-- src/implementation/DomainLogicServerless/DomainLogicStepUpLevelAlertServerless.ts -->
<g id="node13" class="node">
<title>src/implementation/DomainLogicServerless/DomainLogicStepUpLevelAlertServerless.ts</title>
<path fill="none" stroke="#c6c5fe" d="M567.33,-556C567.33,-556 7.67,-556 7.67,-556 3.83,-556 0,-552.17 0,-548.33 0,-548.33 0,-540.67 0,-540.67 0,-536.83 3.83,-533 7.67,-533 7.67,-533 567.33,-533 567.33,-533 571.17,-533 575,-536.83 575,-540.67 575,-540.67 575,-548.33 575,-548.33 575,-552.17 571.17,-556 567.33,-556"/>
<text text-anchor="middle" x="287.5" y="-540.8" font-family="Arial" font-size="14.00" fill="#c6c5fe">src/implementation/DomainLogicServerless/DomainLogicStepUpLevelAlertServerless.ts</text>
</g>
<!-- src/implementation/DomainLogicServerless/DomainLogicStepUpLevelAlertServerless.ts&#45;&gt;src/implementation/DomainLogicServerless/FunctionsToReceive.ts -->
<g id="edge7" class="edge">
<title>src/implementation/DomainLogicServerless/DomainLogicStepUpLevelAlertServerless.ts&#45;&gt;src/implementation/DomainLogicServerless/FunctionsToReceive.ts</title>
<path fill="none" stroke="#757575" d="M575.24,-555.07C583.74,-555.38 592.22,-555.7 600.65,-556.01"/>
<polygon fill="#757575" stroke="#757575" points="600.78,-559.51 610.9,-556.39 601.04,-552.52 600.78,-559.51"/>
</g>
<!-- src/interfaces/DomainLogic.ts -->
<g id="node14" class="node">
<title>src/interfaces/DomainLogic.ts</title>
<path fill="none" stroke="#cfffac" d="M926.83,-679C926.83,-679 737.17,-679 737.17,-679 733.33,-679 729.5,-675.17 729.5,-671.33 729.5,-671.33 729.5,-663.67 729.5,-663.67 729.5,-659.83 733.33,-656 737.17,-656 737.17,-656 926.83,-656 926.83,-656 930.67,-656 934.5,-659.83 934.5,-663.67 934.5,-663.67 934.5,-671.33 934.5,-671.33 934.5,-675.17 930.67,-679 926.83,-679"/>
<text text-anchor="middle" x="832" y="-663.8" font-family="Arial" font-size="14.00" fill="#cfffac">src/interfaces/DomainLogic.ts</text>
</g>
<!-- src/interfaces/EscalationPolicyAdapter.ts -->
<g id="node15" class="node">
<title>src/interfaces/EscalationPolicyAdapter.ts</title>
<path fill="none" stroke="#c6c5fe" d="M417.33,-720C417.33,-720 157.67,-720 157.67,-720 153.83,-720 150,-716.17 150,-712.33 150,-712.33 150,-704.67 150,-704.67 150,-700.83 153.83,-697 157.67,-697 157.67,-697 417.33,-697 417.33,-697 421.17,-697 425,-700.83 425,-704.67 425,-704.67 425,-712.33 425,-712.33 425,-716.17 421.17,-720 417.33,-720"/>
<text text-anchor="middle" x="287.5" y="-704.8" font-family="Arial" font-size="14.00" fill="#c6c5fe">src/interfaces/EscalationPolicyAdapter.ts</text>
</g>
<!-- src/interfaces/EscalationPolicyAdapter.ts&#45;&gt;src/interfaces/DomainLogic.ts -->
<g id="edge8" class="edge">
<title>src/interfaces/EscalationPolicyAdapter.ts&#45;&gt;src/interfaces/DomainLogic.ts</title>
<path fill="none" stroke="#757575" d="M425.15,-699.3C472.6,-696.02 526.15,-692.21 575,-688.5 622.33,-684.91 674.57,-680.67 719.44,-676.95"/>
<polygon fill="#757575" stroke="#757575" points="719.81,-680.43 729.49,-676.11 719.23,-673.45 719.81,-680.43"/>
</g>
<!-- src/interfaces/MailAdapter.ts -->
<g id="node16" class="node">
<title>src/interfaces/MailAdapter.ts</title>
<path fill="none" stroke="#cfffac" d="M377.83,-761C377.83,-761 197.17,-761 197.17,-761 193.33,-761 189.5,-757.17 189.5,-753.33 189.5,-753.33 189.5,-745.67 189.5,-745.67 189.5,-741.83 193.33,-738 197.17,-738 197.17,-738 377.83,-738 377.83,-738 381.67,-738 385.5,-741.83 385.5,-745.67 385.5,-745.67 385.5,-753.33 385.5,-753.33 385.5,-757.17 381.67,-761 377.83,-761"/>
<text text-anchor="middle" x="287.5" y="-745.8" font-family="Arial" font-size="14.00" fill="#cfffac">src/interfaces/MailAdapter.ts</text>
</g>
<!-- src/interfaces/PersistanceAdapter.ts -->
<g id="node17" class="node">
<title>src/interfaces/PersistanceAdapter.ts</title>
<path fill="none" stroke="#c6c5fe" d="M402.83,-679C402.83,-679 172.17,-679 172.17,-679 168.33,-679 164.5,-675.17 164.5,-671.33 164.5,-671.33 164.5,-663.67 164.5,-663.67 164.5,-659.83 168.33,-656 172.17,-656 172.17,-656 402.83,-656 402.83,-656 406.67,-656 410.5,-659.83 410.5,-663.67 410.5,-663.67 410.5,-671.33 410.5,-671.33 410.5,-675.17 406.67,-679 402.83,-679"/>
<text text-anchor="middle" x="287.5" y="-663.8" font-family="Arial" font-size="14.00" fill="#c6c5fe">src/interfaces/PersistanceAdapter.ts</text>
</g>
<!-- src/interfaces/PersistanceAdapter.ts&#45;&gt;src/interfaces/DomainLogic.ts -->
<g id="edge9" class="edge">
<title>src/interfaces/PersistanceAdapter.ts&#45;&gt;src/interfaces/DomainLogic.ts</title>
<path fill="none" stroke="#757575" d="M410.59,-667.5C503.1,-667.5 629.21,-667.5 719.12,-667.5"/>
<polygon fill="#757575" stroke="#757575" points="719.35,-671 729.35,-667.5 719.35,-664 719.35,-671"/>
</g>
<!-- src/interfaces/SMSAdapter.ts -->
<g id="node18" class="node">
<title>src/interfaces/SMSAdapter.ts</title>
<path fill="none" stroke="#cfffac" d="M380.83,-802C380.83,-802 194.17,-802 194.17,-802 190.33,-802 186.5,-798.17 186.5,-794.33 186.5,-794.33 186.5,-786.67 186.5,-786.67 186.5,-782.83 190.33,-779 194.17,-779 194.17,-779 380.83,-779 380.83,-779 384.67,-779 388.5,-782.83 388.5,-786.67 388.5,-786.67 388.5,-794.33 388.5,-794.33 388.5,-798.17 384.67,-802 380.83,-802"/>
<text text-anchor="middle" x="287.5" y="-786.8" font-family="Arial" font-size="14.00" fill="#cfffac">src/interfaces/SMSAdapter.ts</text>
</g>
<!-- src/interfaces/TimerAdapter.ts -->
<g id="node19" class="node">
<title>src/interfaces/TimerAdapter.ts</title>
<path fill="none" stroke="#c6c5fe" d="M383.83,-638C383.83,-638 191.17,-638 191.17,-638 187.33,-638 183.5,-634.17 183.5,-630.33 183.5,-630.33 183.5,-622.67 183.5,-622.67 183.5,-618.83 187.33,-615 191.17,-615 191.17,-615 383.83,-615 383.83,-615 387.67,-615 391.5,-618.83 391.5,-622.67 391.5,-622.67 391.5,-630.33 391.5,-630.33 391.5,-634.17 387.67,-638 383.83,-638"/>
<text text-anchor="middle" x="287.5" y="-622.8" font-family="Arial" font-size="14.00" fill="#c6c5fe">src/interfaces/TimerAdapter.ts</text>
</g>
<!-- src/interfaces/TimerAdapter.ts&#45;&gt;src/interfaces/DomainLogic.ts -->
<g id="edge10" class="edge">
<title>src/interfaces/TimerAdapter.ts&#45;&gt;src/interfaces/DomainLogic.ts</title>
<path fill="none" stroke="#757575" d="M391.62,-633.39C446.16,-637.12 514.22,-641.89 575,-646.5 622.33,-650.09 674.57,-654.33 719.44,-658.05"/>
<polygon fill="#757575" stroke="#757575" points="719.23,-661.55 729.49,-658.89 719.81,-654.57 719.23,-661.55"/>
</g>
<!-- src/inyection/bindDependencies.ts -->
<g id="node20" class="node">
<title>src/inyection/bindDependencies.ts</title>
<path fill="none" stroke="#c6c5fe" d="M396.83,-843C396.83,-843 178.17,-843 178.17,-843 174.33,-843 170.5,-839.17 170.5,-835.33 170.5,-835.33 170.5,-827.67 170.5,-827.67 170.5,-823.83 174.33,-820 178.17,-820 178.17,-820 396.83,-820 396.83,-820 400.67,-820 404.5,-823.83 404.5,-827.67 404.5,-827.67 404.5,-835.33 404.5,-835.33 404.5,-839.17 400.67,-843 396.83,-843"/>
<text text-anchor="middle" x="287.5" y="-827.8" font-family="Arial" font-size="14.00" fill="#c6c5fe">src/inyection/bindDependencies.ts</text>
</g>
<!-- src/inyection/inversify.config.ts -->
<g id="node21" class="node">
<title>src/inyection/inversify.config.ts</title>
<path fill="none" stroke="#cfffac" d="M928.83,-843C928.83,-843 735.17,-843 735.17,-843 731.33,-843 727.5,-839.17 727.5,-835.33 727.5,-835.33 727.5,-827.67 727.5,-827.67 727.5,-823.83 731.33,-820 735.17,-820 735.17,-820 928.83,-820 928.83,-820 932.67,-820 936.5,-823.83 936.5,-827.67 936.5,-827.67 936.5,-835.33 936.5,-835.33 936.5,-839.17 932.67,-843 928.83,-843"/>
<text text-anchor="middle" x="832" y="-827.8" font-family="Arial" font-size="14.00" fill="#cfffac">src/inyection/inversify.config.ts</text>
</g>
<!-- src/inyection/bindDependencies.ts&#45;&gt;src/inyection/inversify.config.ts -->
<g id="edge11" class="edge">
<title>src/inyection/bindDependencies.ts&#45;&gt;src/inyection/inversify.config.ts</title>
<path fill="none" stroke="#757575" d="M404.55,-831.5C496.8,-831.5 625.15,-831.5 716.9,-831.5"/>
<polygon fill="#757575" stroke="#757575" points="717.06,-835 727.06,-831.5 717.06,-828 717.06,-835"/>
</g>
<!-- src/inyection/containers/DomainLogic.ts -->
<g id="node22" class="node">
<title>src/inyection/containers/DomainLogic.ts</title>
<path fill="none" stroke="#cfffac" d="M413.33,-884C413.33,-884 161.67,-884 161.67,-884 157.83,-884 154,-880.17 154,-876.33 154,-876.33 154,-868.67 154,-868.67 154,-864.83 157.83,-861 161.67,-861 161.67,-861 413.33,-861 413.33,-861 417.17,-861 421,-864.83 421,-868.67 421,-868.67 421,-876.33 421,-876.33 421,-880.17 417.17,-884 413.33,-884"/>
<text text-anchor="middle" x="287.5" y="-868.8" font-family="Arial" font-size="14.00" fill="#cfffac">src/inyection/containers/DomainLogic.ts</text>
</g>
<!-- src/inyection/types.ts -->
<g id="node23" class="node">
<title>src/inyection/types.ts</title>
<path fill="none" stroke="#cfffac" d="M354.33,-925C354.33,-925 220.67,-925 220.67,-925 216.83,-925 213,-921.17 213,-917.33 213,-917.33 213,-909.67 213,-909.67 213,-905.83 216.83,-902 220.67,-902 220.67,-902 354.33,-902 354.33,-902 358.17,-902 362,-905.83 362,-909.67 362,-909.67 362,-917.33 362,-917.33 362,-921.17 358.17,-925 354.33,-925"/>
<text text-anchor="middle" x="287.5" y="-909.8" font-family="Arial" font-size="14.00" fill="#cfffac">src/inyection/types.ts</text>
</g>
<!-- test/DomainLogicServerless.test/DomainLogicCheckAlertServerless.test.ts -->
<g id="node24" class="node">
<title>test/DomainLogicServerless.test/DomainLogicCheckAlertServerless.test.ts</title>
<path fill="none" stroke="#c6c5fe" d="M525.33,-64C525.33,-64 49.67,-64 49.67,-64 45.83,-64 42,-60.17 42,-56.33 42,-56.33 42,-48.67 42,-48.67 42,-44.83 45.83,-41 49.67,-41 49.67,-41 525.33,-41 525.33,-41 529.17,-41 533,-44.83 533,-48.67 533,-48.67 533,-56.33 533,-56.33 533,-60.17 529.17,-64 525.33,-64"/>
<text text-anchor="middle" x="287.5" y="-48.8" font-family="Arial" font-size="14.00" fill="#c6c5fe">test/DomainLogicServerless.test/DomainLogicCheckAlertServerless.test.ts</text>
</g>
<!-- test/mockServices/PersistanceAdapter.ts -->
<g id="node25" class="node">
<title>test/mockServices/PersistanceAdapter.ts</title>
<path fill="none" stroke="#c6c5fe" d="M963.33,-146C963.33,-146 700.67,-146 700.67,-146 696.83,-146 693,-142.17 693,-138.33 693,-138.33 693,-130.67 693,-130.67 693,-126.83 696.83,-123 700.67,-123 700.67,-123 963.33,-123 963.33,-123 967.17,-123 971,-126.83 971,-130.67 971,-130.67 971,-138.33 971,-138.33 971,-142.17 967.17,-146 963.33,-146"/>
<text text-anchor="middle" x="832" y="-130.8" font-family="Arial" font-size="14.00" fill="#c6c5fe">test/mockServices/PersistanceAdapter.ts</text>
</g>
<!-- test/DomainLogicServerless.test/DomainLogicCheckAlertServerless.test.ts&#45;&gt;test/mockServices/PersistanceAdapter.ts -->
<g id="edge12" class="edge">
<title>test/DomainLogicServerless.test/DomainLogicCheckAlertServerless.test.ts&#45;&gt;test/mockServices/PersistanceAdapter.ts</title>
<path fill="none" stroke="#757575" d="M507.91,-64.02C530.63,-66.35 553.32,-69.14 575,-72.5 648.29,-83.85 731.47,-105.7 782.59,-120.2"/>
<polygon fill="#757575" stroke="#757575" points="781.8,-123.61 792.37,-122.99 783.72,-116.88 781.8,-123.61"/>
</g>
<!-- test/mockServices/EscalationPolicyAdapterMock.ts -->
<g id="node38" class="node">
<title>test/mockServices/EscalationPolicyAdapterMock.ts</title>
<path fill="none" stroke="#cfffac" d="M1421.33,-146C1421.33,-146 1096.67,-146 1096.67,-146 1092.83,-146 1089,-142.17 1089,-138.33 1089,-138.33 1089,-130.67 1089,-130.67 1089,-126.83 1092.83,-123 1096.67,-123 1096.67,-123 1421.33,-123 1421.33,-123 1425.17,-123 1429,-126.83 1429,-130.67 1429,-130.67 1429,-138.33 1429,-138.33 1429,-142.17 1425.17,-146 1421.33,-146"/>
<text text-anchor="middle" x="1259" y="-130.8" font-family="Arial" font-size="14.00" fill="#cfffac">test/mockServices/EscalationPolicyAdapterMock.ts</text>
</g>
<!-- test/mockServices/PersistanceAdapter.ts&#45;&gt;test/mockServices/EscalationPolicyAdapterMock.ts -->
<g id="edge24" class="edge">
<title>test/mockServices/PersistanceAdapter.ts&#45;&gt;test/mockServices/EscalationPolicyAdapterMock.ts</title>
<path fill="none" stroke="#757575" d="M971.28,-134.5C1005.61,-134.5 1042.89,-134.5 1078.87,-134.5"/>
<polygon fill="#757575" stroke="#757575" points="1078.98,-138 1088.98,-134.5 1078.98,-131 1078.98,-138"/>
</g>
<!-- test/DomainLogicServerless.test/DomainLogicCloseAlertServerless.test.ts -->
<g id="node26" class="node">
<title>test/DomainLogicServerless.test/DomainLogicCloseAlertServerless.test.ts</title>
<path fill="none" stroke="#c6c5fe" d="M523.83,-228C523.83,-228 51.17,-228 51.17,-228 47.33,-228 43.5,-224.17 43.5,-220.33 43.5,-220.33 43.5,-212.67 43.5,-212.67 43.5,-208.83 47.33,-205 51.17,-205 51.17,-205 523.83,-205 523.83,-205 527.67,-205 531.5,-208.83 531.5,-212.67 531.5,-212.67 531.5,-220.33 531.5,-220.33 531.5,-224.17 527.67,-228 523.83,-228"/>
<text text-anchor="middle" x="287.5" y="-212.8" font-family="Arial" font-size="14.00" fill="#c6c5fe">test/DomainLogicServerless.test/DomainLogicCloseAlertServerless.test.ts</text>
</g>
<!-- test/DomainLogicServerless.test/DomainLogicCloseAlertServerless.test.ts&#45;&gt;src/implementation/Errors/DomainLogicServerless.ts -->
<g id="edge13" class="edge">
<title>test/DomainLogicServerless.test/DomainLogicCloseAlertServerless.test.ts&#45;&gt;src/implementation/Errors/DomainLogicServerless.ts</title>
<path fill="none" stroke="#757575" d="M458.2,-228C496.61,-230.7 537.21,-233.63 575,-236.5 610.46,-239.19 648.67,-242.25 684.48,-245.17"/>
<polygon fill="#757575" stroke="#757575" points="684.26,-248.67 694.51,-245.99 684.83,-241.69 684.26,-248.67"/>
</g>
<!-- test/DomainLogicServerless.test/DomainLogicCloseAlertServerless.test.ts&#45;&gt;test/mockServices/PersistanceAdapter.ts -->
<g id="edge14" class="edge">
<title>test/DomainLogicServerless.test/DomainLogicCloseAlertServerless.test.ts&#45;&gt;test/mockServices/PersistanceAdapter.ts</title>
<path fill="none" stroke="#757575" d="M498.61,-205C524.41,-202.44 550.36,-199.31 575,-195.5 647.81,-184.23 730.46,-162.96 781.67,-148.75"/>
<polygon fill="#757575" stroke="#757575" points="782.8,-152.07 791.48,-146.01 780.91,-145.33 782.8,-152.07"/>
</g>
<!-- test/DomainLogicServerless.test/DomainLogicCreateAlertServerless.test.ts -->
<g id="node27" class="node">
<title>test/DomainLogicServerless.test/DomainLogicCreateAlertServerless.test.ts</title>
<path fill="none" stroke="#c6c5fe" d="M526.33,-187C526.33,-187 48.67,-187 48.67,-187 44.83,-187 41,-183.17 41,-179.33 41,-179.33 41,-171.67 41,-171.67 41,-167.83 44.83,-164 48.67,-164 48.67,-164 526.33,-164 526.33,-164 530.17,-164 534,-167.83 534,-171.67 534,-171.67 534,-179.33 534,-179.33 534,-183.17 530.17,-187 526.33,-187"/>
<text text-anchor="middle" x="287.5" y="-171.8" font-family="Arial" font-size="14.00" fill="#c6c5fe">test/DomainLogicServerless.test/DomainLogicCreateAlertServerless.test.ts</text>
</g>
<!-- test/DomainLogicServerless.test/DomainLogicCreateAlertServerless.test.ts&#45;&gt;src/implementation/Errors/DomainLogicServerless.ts -->
<g id="edge15" class="edge">
<title>test/DomainLogicServerless.test/DomainLogicCreateAlertServerless.test.ts&#45;&gt;src/implementation/Errors/DomainLogicServerless.ts</title>
<path fill="none" stroke="#757575" d="M507.91,-187.02C530.63,-189.35 553.32,-192.14 575,-195.5 648.29,-206.85 731.47,-228.7 782.59,-243.2"/>
<polygon fill="#757575" stroke="#757575" points="781.8,-246.61 792.37,-245.99 783.72,-239.88 781.8,-246.61"/>
</g>
<!-- test/DomainLogicServerless.test/DomainLogicCreateAlertServerless.test.ts&#45;&gt;test/mockServices/PersistanceAdapter.ts -->
<g id="edge16" class="edge">
<title>test/DomainLogicServerless.test/DomainLogicCreateAlertServerless.test.ts&#45;&gt;test/mockServices/PersistanceAdapter.ts</title>
<path fill="none" stroke="#757575" d="M447.25,-164C488.83,-160.95 533.6,-157.63 575,-154.5 609.79,-151.87 647.24,-148.97 682.47,-146.23"/>
<polygon fill="#757575" stroke="#757575" points="683.14,-149.68 692.84,-145.42 682.59,-142.71 683.14,-149.68"/>
</g>
<!-- test/DomainLogicServerless.test/DomainLogicCreateServiceServerless.test.ts -->
<g id="node28" class="node">
<title>test/DomainLogicServerless.test/DomainLogicCreateServiceServerless.test.ts</title>
<path fill="none" stroke="#cfffac" d="M535.83,-966C535.83,-966 39.17,-966 39.17,-966 35.33,-966 31.5,-962.17 31.5,-958.33 31.5,-958.33 31.5,-950.67 31.5,-950.67 31.5,-946.83 35.33,-943 39.17,-943 39.17,-943 535.83,-943 535.83,-943 539.67,-943 543.5,-946.83 543.5,-950.67 543.5,-950.67 543.5,-958.33 543.5,-958.33 543.5,-962.17 539.67,-966 535.83,-966"/>
<text text-anchor="middle" x="287.5" y="-950.8" font-family="Arial" font-size="14.00" fill="#cfffac">test/DomainLogicServerless.test/DomainLogicCreateServiceServerless.test.ts</text>
</g>
<!-- test/DomainLogicServerless.test/DomainLogicNotifyPersonServerless.test.ts -->
<g id="node29" class="node">
<title>test/DomainLogicServerless.test/DomainLogicNotifyPersonServerless.test.ts</title>
<path fill="none" stroke="#c6c5fe" d="M531.33,-146C531.33,-146 43.67,-146 43.67,-146 39.83,-146 36,-142.17 36,-138.33 36,-138.33 36,-130.67 36,-130.67 36,-126.83 39.83,-123 43.67,-123 43.67,-123 531.33,-123 531.33,-123 535.17,-123 539,-126.83 539,-130.67 539,-130.67 539,-138.33 539,-138.33 539,-142.17 535.17,-146 531.33,-146"/>
<text text-anchor="middle" x="287.5" y="-130.8" font-family="Arial" font-size="14.00" fill="#c6c5fe">test/DomainLogicServerless.test/DomainLogicNotifyPersonServerless.test.ts</text>
</g>
<!-- test/DomainLogicServerless.test/DomainLogicNotifyPersonServerless.test.ts&#45;&gt;src/implementation/Errors/DomainLogicServerless.ts -->
<g id="edge17" class="edge">
<title>test/DomainLogicServerless.test/DomainLogicNotifyPersonServerless.test.ts&#45;&gt;src/implementation/Errors/DomainLogicServerless.ts</title>
<path fill="none" stroke="#757575" d="M530.8,-146.02C545.83,-148.4 560.67,-151.2 575,-154.5 659.74,-173.99 753,-217.62 800.1,-241.36"/>
<polygon fill="#757575" stroke="#757575" points="798.66,-244.55 809.16,-245.97 801.84,-238.31 798.66,-244.55"/>
</g>
<!-- test/DomainLogicServerless.test/DomainLogicNotifyPersonServerless.test.ts&#45;&gt;test/mockServices/PersistanceAdapter.ts -->
<g id="edge18" class="edge">
<title>test/DomainLogicServerless.test/DomainLogicNotifyPersonServerless.test.ts&#45;&gt;test/mockServices/PersistanceAdapter.ts</title>
<path fill="none" stroke="#757575" d="M539.11,-134.5C588.17,-134.5 638.14,-134.5 682.55,-134.5"/>
<polygon fill="#757575" stroke="#757575" points="682.82,-138 692.82,-134.5 682.82,-131 682.82,-138"/>
</g>
<!-- test/DomainLogicServerless.test/DomainLogicReceiveTimeoutServerless.test.ts -->
<g id="node30" class="node">
<title>test/DomainLogicServerless.test/DomainLogicReceiveTimeoutServerless.test.ts</title>
<path fill="none" stroke="#cfffac" d="M542.33,-1007C542.33,-1007 32.67,-1007 32.67,-1007 28.83,-1007 25,-1003.17 25,-999.33 25,-999.33 25,-991.67 25,-991.67 25,-987.83 28.83,-984 32.67,-984 32.67,-984 542.33,-984 542.33,-984 546.17,-984 550,-987.83 550,-991.67 550,-991.67 550,-999.33 550,-999.33 550,-1003.17 546.17,-1007 542.33,-1007"/>
<text text-anchor="middle" x="287.5" y="-991.8" font-family="Arial" font-size="14.00" fill="#cfffac">test/DomainLogicServerless.test/DomainLogicReceiveTimeoutServerless.test.ts</text>
</g>
<!-- test/DomainLogicServerless.test/DomainLogicServerless.test.ts -->
<g id="node31" class="node">
<title>test/DomainLogicServerless.test/DomainLogicServerless.test.ts</title>
<path fill="none" stroke="#c6c5fe" d="M490.33,-1048C490.33,-1048 84.67,-1048 84.67,-1048 80.83,-1048 77,-1044.17 77,-1040.33 77,-1040.33 77,-1032.67 77,-1032.67 77,-1028.83 80.83,-1025 84.67,-1025 84.67,-1025 490.33,-1025 490.33,-1025 494.17,-1025 498,-1028.83 498,-1032.67 498,-1032.67 498,-1040.33 498,-1040.33 498,-1044.17 494.17,-1048 490.33,-1048"/>
<text text-anchor="middle" x="287.5" y="-1032.8" font-family="Arial" font-size="14.00" fill="#c6c5fe">test/DomainLogicServerless.test/DomainLogicServerless.test.ts</text>
</g>
<!-- test/containers/MailAdapterMock.ts -->
<g id="node32" class="node">
<title>test/containers/MailAdapterMock.ts</title>
<path fill="none" stroke="#cfffac" d="M942.33,-1109C942.33,-1109 721.67,-1109 721.67,-1109 717.83,-1109 714,-1105.17 714,-1101.33 714,-1101.33 714,-1093.67 714,-1093.67 714,-1089.83 717.83,-1086 721.67,-1086 721.67,-1086 942.33,-1086 942.33,-1086 946.17,-1086 950,-1089.83 950,-1093.67 950,-1093.67 950,-1101.33 950,-1101.33 950,-1105.17 946.17,-1109 942.33,-1109"/>
<text text-anchor="middle" x="832" y="-1093.8" font-family="Arial" font-size="14.00" fill="#cfffac">test/containers/MailAdapterMock.ts</text>
</g>
<!-- test/DomainLogicServerless.test/DomainLogicServerless.test.ts&#45;&gt;test/containers/MailAdapterMock.ts -->
<g id="edge19" class="edge">
<title>test/DomainLogicServerless.test/DomainLogicServerless.test.ts&#45;&gt;test/containers/MailAdapterMock.ts</title>
<path fill="none" stroke="#757575" d="M498.15,-1041.28C524.34,-1044.96 550.51,-1050.19 575,-1057.5 592.54,-1062.74 593.51,-1072.11 611,-1077.5 640.43,-1086.57 673.05,-1091.92 703.96,-1094.98"/>
<polygon fill="#757575" stroke="#757575" points="703.65,-1098.47 713.93,-1095.9 704.29,-1091.5 703.65,-1098.47"/>
</g>
<!-- test/containers/PersistanceAdapterMock.ts -->
<g id="node33" class="node">
<title>test/containers/PersistanceAdapterMock.ts</title>
<path fill="none" stroke="#cfffac" d="M967.83,-1068C967.83,-1068 696.17,-1068 696.17,-1068 692.33,-1068 688.5,-1064.17 688.5,-1060.33 688.5,-1060.33 688.5,-1052.67 688.5,-1052.67 688.5,-1048.83 692.33,-1045 696.17,-1045 696.17,-1045 967.83,-1045 967.83,-1045 971.67,-1045 975.5,-1048.83 975.5,-1052.67 975.5,-1052.67 975.5,-1060.33 975.5,-1060.33 975.5,-1064.17 971.67,-1068 967.83,-1068"/>
<text text-anchor="middle" x="832" y="-1052.8" font-family="Arial" font-size="14.00" fill="#cfffac">test/containers/PersistanceAdapterMock.ts</text>
</g>
<!-- test/DomainLogicServerless.test/DomainLogicServerless.test.ts&#45;&gt;test/containers/PersistanceAdapterMock.ts -->
<g id="edge20" class="edge">
<title>test/DomainLogicServerless.test/DomainLogicServerless.test.ts&#45;&gt;test/containers/PersistanceAdapterMock.ts</title>
<path fill="none" stroke="#757575" d="M498.24,-1044.23C558.17,-1046.44 622.33,-1048.81 678.16,-1050.87"/>
<polygon fill="#757575" stroke="#757575" points="678.36,-1054.38 688.48,-1051.25 678.62,-1047.38 678.36,-1054.38"/>
</g>
<!-- test/containers/SMSAdapterMock.ts -->
<g id="node34" class="node">
<title>test/containers/SMSAdapterMock.ts</title>
<path fill="none" stroke="#cfffac" d="M945.33,-1027C945.33,-1027 718.67,-1027 718.67,-1027 714.83,-1027 711,-1023.17 711,-1019.33 711,-1019.33 711,-1011.67 711,-1011.67 711,-1007.83 714.83,-1004 718.67,-1004 718.67,-1004 945.33,-1004 945.33,-1004 949.17,-1004 953,-1007.83 953,-1011.67 953,-1011.67 953,-1019.33 953,-1019.33 953,-1023.17 949.17,-1027 945.33,-1027"/>
<text text-anchor="middle" x="832" y="-1011.8" font-family="Arial" font-size="14.00" fill="#cfffac">test/containers/SMSAdapterMock.ts</text>
</g>
<!-- test/DomainLogicServerless.test/DomainLogicServerless.test.ts&#45;&gt;test/containers/SMSAdapterMock.ts -->
<g id="edge21" class="edge">
<title>test/DomainLogicServerless.test/DomainLogicServerless.test.ts&#45;&gt;test/containers/SMSAdapterMock.ts</title>
<path fill="none" stroke="#757575" d="M498.24,-1028.38C566.45,-1025.74 640.14,-1022.89 700.79,-1020.54"/>
<polygon fill="#757575" stroke="#757575" points="700.94,-1024.04 710.8,-1020.15 700.67,-1017.04 700.94,-1024.04"/>
</g>
<!-- test/containers/TimerAdapterMock.ts -->
<g id="node35" class="node">
<title>test/containers/TimerAdapterMock.ts</title>
<path fill="none" stroke="#cfffac" d="M948.33,-986C948.33,-986 715.67,-986 715.67,-986 711.83,-986 708,-982.17 708,-978.33 708,-978.33 708,-970.67 708,-970.67 708,-966.83 711.83,-963 715.67,-963 715.67,-963 948.33,-963 948.33,-963 952.17,-963 956,-966.83 956,-970.67 956,-970.67 956,-978.33 956,-978.33 956,-982.17 952.17,-986 948.33,-986"/>
<text text-anchor="middle" x="832" y="-970.8" font-family="Arial" font-size="14.00" fill="#cfffac">test/containers/TimerAdapterMock.ts</text>
</g>
<!-- test/DomainLogicServerless.test/DomainLogicServerless.test.ts&#45;&gt;test/containers/TimerAdapterMock.ts -->
<g id="edge22" class="edge">
<title>test/DomainLogicServerless.test/DomainLogicServerless.test.ts&#45;&gt;test/containers/TimerAdapterMock.ts</title>
<path fill="none" stroke="#757575" d="M498.29,-1033.02C524.45,-1029.34 550.58,-1024.02 575,-1016.5 592.7,-1011.05 593.37,-1001.18 611,-995.5 638.36,-986.69 668.55,-981.23 697.56,-977.93"/>
<polygon fill="#757575" stroke="#757575" points="698.2,-981.38 707.77,-976.85 697.46,-974.42 698.2,-981.38"/>
</g>
<!-- test/DomainLogicServerless.test/DomainLogicServerlessCRUD.test.ts -->
<g id="node36" class="node">
<title>test/DomainLogicServerless.test/DomainLogicServerlessCRUD.test.ts</title>
<path fill="none" stroke="#cfffac" d="M510.83,-1089C510.83,-1089 64.17,-1089 64.17,-1089 60.33,-1089 56.5,-1085.17 56.5,-1081.33 56.5,-1081.33 56.5,-1073.67 56.5,-1073.67 56.5,-1069.83 60.33,-1066 64.17,-1066 64.17,-1066 510.83,-1066 510.83,-1066 514.67,-1066 518.5,-1069.83 518.5,-1073.67 518.5,-1073.67 518.5,-1081.33 518.5,-1081.33 518.5,-1085.17 514.67,-1089 510.83,-1089"/>
<text text-anchor="middle" x="287.5" y="-1073.8" font-family="Arial" font-size="14.00" fill="#cfffac">test/DomainLogicServerless.test/DomainLogicServerlessCRUD.test.ts</text>
</g>
<!-- test/DomainLogicServerless.test/DomainLogicStepUpAlertServerless.test.ts -->
<g id="node37" class="node">
<title>test/DomainLogicServerless.test/DomainLogicStepUpAlertServerless.test.ts</title>
<path fill="none" stroke="#c6c5fe" d="M528.83,-105C528.83,-105 46.17,-105 46.17,-105 42.33,-105 38.5,-101.17 38.5,-97.33 38.5,-97.33 38.5,-89.67 38.5,-89.67 38.5,-85.83 42.33,-82 46.17,-82 46.17,-82 528.83,-82 528.83,-82 532.67,-82 536.5,-85.83 536.5,-89.67 536.5,-89.67 536.5,-97.33 536.5,-97.33 536.5,-101.17 532.67,-105 528.83,-105"/>
<text text-anchor="middle" x="287.5" y="-89.8" font-family="Arial" font-size="14.00" fill="#c6c5fe">test/DomainLogicServerless.test/DomainLogicStepUpAlertServerless.test.ts</text>
</g>
<!-- test/DomainLogicServerless.test/DomainLogicStepUpAlertServerless.test.ts&#45;&gt;test/mockServices/PersistanceAdapter.ts -->
<g id="edge23" class="edge">
<title>test/DomainLogicServerless.test/DomainLogicStepUpAlertServerless.test.ts&#45;&gt;test/mockServices/PersistanceAdapter.ts</title>
<path fill="none" stroke="#757575" d="M458.2,-105C496.61,-107.7 537.21,-110.63 575,-113.5 610.46,-116.19 648.67,-119.25 684.48,-122.17"/>
<polygon fill="#757575" stroke="#757575" points="684.26,-125.67 694.51,-122.99 684.83,-118.69 684.26,-125.67"/>
</g>
<!-- test/mockServices/MailAdapterMock.ts -->
<g id="node39" class="node">
<title>test/mockServices/MailAdapterMock.ts</title>
<path fill="none" stroke="#cfffac" d="M410.33,-1130C410.33,-1130 164.67,-1130 164.67,-1130 160.83,-1130 157,-1126.17 157,-1122.33 157,-1122.33 157,-1114.67 157,-1114.67 157,-1110.83 160.83,-1107 164.67,-1107 164.67,-1107 410.33,-1107 410.33,-1107 414.17,-1107 418,-1110.83 418,-1114.67 418,-1114.67 418,-1122.33 418,-1122.33 418,-1126.17 414.17,-1130 410.33,-1130"/>
<text text-anchor="middle" x="287.5" y="-1114.8" font-family="Arial" font-size="14.00" fill="#cfffac">test/mockServices/MailAdapterMock.ts</text>
</g>
<!-- test/mockServices/SMSApadterMock.ts -->
<g id="node40" class="node">
<title>test/mockServices/SMSApadterMock.ts</title>
<path fill="none" stroke="#cfffac" d="M413.33,-1171C413.33,-1171 161.67,-1171 161.67,-1171 157.83,-1171 154,-1167.17 154,-1163.33 154,-1163.33 154,-1155.67 154,-1155.67 154,-1151.83 157.83,-1148 161.67,-1148 161.67,-1148 413.33,-1148 413.33,-1148 417.17,-1148 421,-1151.83 421,-1155.67 421,-1155.67 421,-1163.33 421,-1163.33 421,-1167.17 417.17,-1171 413.33,-1171"/>
<text text-anchor="middle" x="287.5" y="-1155.8" font-family="Arial" font-size="14.00" fill="#cfffac">test/mockServices/SMSApadterMock.ts</text>
</g>
<!-- test/mockServices/TimerAdapterMock.ts -->
<g id="node41" class="node">
<title>test/mockServices/TimerAdapterMock.ts</title>
<path fill="none" stroke="#cfffac" d="M416.33,-1212C416.33,-1212 158.67,-1212 158.67,-1212 154.83,-1212 151,-1208.17 151,-1204.33 151,-1204.33 151,-1196.67 151,-1196.67 151,-1192.83 154.83,-1189 158.67,-1189 158.67,-1189 416.33,-1189 416.33,-1189 420.17,-1189 424,-1192.83 424,-1196.67 424,-1196.67 424,-1204.33 424,-1204.33 424,-1208.17 420.17,-1212 416.33,-1212"/>
<text text-anchor="middle" x="287.5" y="-1196.8" font-family="Arial" font-size="14.00" fill="#cfffac">test/mockServices/TimerAdapterMock.ts</text>
</g>
<!-- tools/madgeDependencies.ts -->
<g id="node42" class="node">
<title>tools/madgeDependencies.ts</title>
<path fill="none" stroke="#cfffac" d="M381.33,-1253C381.33,-1253 193.67,-1253 193.67,-1253 189.83,-1253 186,-1249.17 186,-1245.33 186,-1245.33 186,-1237.67 186,-1237.67 186,-1233.83 189.83,-1230 193.67,-1230 193.67,-1230 381.33,-1230 381.33,-1230 385.17,-1230 389,-1233.83 389,-1237.67 389,-1237.67 389,-1245.33 389,-1245.33 389,-1249.17 385.17,-1253 381.33,-1253"/>
<text text-anchor="middle" x="287.5" y="-1237.8" font-family="Arial" font-size="14.00" fill="#cfffac">tools/madgeDependencies.ts</text>
</g>
</g>
</svg>
