<?xml version="1.0" encoding="UTF-8" standalone="no"?>
<!DOCTYPE svg PUBLIC "-//W3C//DTD SVG 1.1//EN"
 "http://www.w3.org/Graphics/SVG/1.1/DTD/svg11.dtd">
<!-- Generated by graphviz version 2.47.0 (20210316.0004)
 -->
<!-- Title: G Pages: 1 -->
<svg width="2587pt" height="392pt"
 viewBox="0.00 0.00 2587.20 392.20" xmlns="http://www.w3.org/2000/svg" xmlns:xlink="http://www.w3.org/1999/xlink">
<g id="graph0" class="graph" transform="scale(1 1) rotate(0) translate(21.6 370.6)">
<title>G</title>
<polygon fill="#111111" stroke="transparent" points="-21.6,21.6 -21.6,-370.6 2565.6,-370.6 2565.6,21.6 -21.6,21.6"/>
<!-- DomainLogicCheckAlert -->
<g id="node1" class="node">
<title>DomainLogicCheckAlert</title>
<path fill="none" stroke="#c6c5fe" d="M743.83,-246C743.83,-246 589.17,-246 589.17,-246 585.33,-246 581.5,-242.17 581.5,-238.33 581.5,-238.33 581.5,-230.67 581.5,-230.67 581.5,-226.83 585.33,-223 589.17,-223 589.17,-223 743.83,-223 743.83,-223 747.67,-223 751.5,-226.83 751.5,-230.67 751.5,-230.67 751.5,-238.33 751.5,-238.33 751.5,-242.17 747.67,-246 743.83,-246"/>
<text text-anchor="middle" x="666.5" y="-230.8" font-family="Arial" font-size="14.00" fill="#c6c5fe">DomainLogicCheckAlert</text>
</g>
<!-- DomainLogicCheckAlertServerless -->
<g id="node2" class="node">
<title>DomainLogicCheckAlertServerless</title>
<path fill="none" stroke="#c6c5fe" d="M1051.33,-246C1051.33,-246 827.67,-246 827.67,-246 823.83,-246 820,-242.17 820,-238.33 820,-238.33 820,-230.67 820,-230.67 820,-226.83 823.83,-223 827.67,-223 827.67,-223 1051.33,-223 1051.33,-223 1055.17,-223 1059,-226.83 1059,-230.67 1059,-230.67 1059,-238.33 1059,-238.33 1059,-242.17 1055.17,-246 1051.33,-246"/>
<text text-anchor="middle" x="939.5" y="-230.8" font-family="Arial" font-size="14.00" fill="#c6c5fe">DomainLogicCheckAlertServerless</text>
</g>
<!-- DomainLogicCheckAlert&#45;&gt;DomainLogicCheckAlertServerless -->
<g id="edge1" class="edge">
<title>DomainLogicCheckAlert&#45;&gt;DomainLogicCheckAlertServerless</title>
<path fill="none" stroke="#757575" d="M751.76,-234.5C770.15,-234.5 790.02,-234.5 809.7,-234.5"/>
<polygon fill="#757575" stroke="#757575" points="809.97,-238 819.97,-234.5 809.96,-231 809.97,-238"/>
</g>
<!-- PersistanceAdapterGetAlert -->
<g id="node3" class="node">
<title>PersistanceAdapterGetAlert</title>
<path fill="none" stroke="#cfffac" d="M1897.33,-308C1897.33,-308 1718.67,-308 1718.67,-308 1714.83,-308 1711,-304.17 1711,-300.33 1711,-300.33 1711,-292.67 1711,-292.67 1711,-288.83 1714.83,-285 1718.67,-285 1718.67,-285 1897.33,-285 1897.33,-285 1901.17,-285 1905,-288.83 1905,-292.67 1905,-292.67 1905,-300.33 1905,-300.33 1905,-304.17 1901.17,-308 1897.33,-308"/>
<text text-anchor="middle" x="1808" y="-292.8" font-family="Arial" font-size="14.00" fill="#cfffac">PersistanceAdapterGetAlert</text>
</g>
<!-- DomainLogicCheckAlertServerless&#45;&gt;PersistanceAdapterGetAlert -->
<g id="edge2" class="edge">
<title>DomainLogicCheckAlertServerless&#45;&gt;PersistanceAdapterGetAlert</title>
<path fill="none" stroke="#757575" d="M973.99,-246.01C1005.16,-256.13 1053.12,-270.2 1096,-276.5 1308.76,-307.78 1561.06,-305.76 1700.66,-301.27"/>
<polygon fill="#757575" stroke="#757575" points="1701.05,-304.76 1710.93,-300.93 1700.82,-297.76 1701.05,-304.76"/>
</g>
<!-- DomainLogicStepUpLevelAlert -->
<g id="node4" class="node">
<title>DomainLogicStepUpLevelAlert</title>
<path fill="none" stroke="#ff6c60" d="M1301.33,-226C1301.33,-226 1104.67,-226 1104.67,-226 1100.83,-226 1097,-222.17 1097,-218.33 1097,-218.33 1097,-210.67 1097,-210.67 1097,-206.83 1100.83,-203 1104.67,-203 1104.67,-203 1301.33,-203 1301.33,-203 1305.17,-203 1309,-206.83 1309,-210.67 1309,-210.67 1309,-218.33 1309,-218.33 1309,-222.17 1305.17,-226 1301.33,-226"/>
<text text-anchor="middle" x="1203" y="-210.8" font-family="Arial" font-size="14.00" fill="#ff6c60">DomainLogicStepUpLevelAlert</text>
</g>
<!-- DomainLogicCheckAlertServerless&#45;&gt;DomainLogicStepUpLevelAlert -->
<g id="edge3" class="edge">
<title>DomainLogicCheckAlertServerless&#45;&gt;DomainLogicStepUpLevelAlert</title>
<path fill="none" stroke="#757575" d="M1059.01,-225.44C1068.14,-224.74 1077.35,-224.03 1086.46,-223.34"/>
<polygon fill="#757575" stroke="#757575" points="1086.99,-226.81 1096.7,-222.55 1086.46,-219.83 1086.99,-226.81"/>
</g>
<!-- DomainLogicStepUpLevelAlertServerless -->
<g id="node31" class="node">
<title>DomainLogicStepUpLevelAlertServerless</title>
<path fill="none" stroke="#ff6c60" d="M1619.33,-226C1619.33,-226 1353.67,-226 1353.67,-226 1349.83,-226 1346,-222.17 1346,-218.33 1346,-218.33 1346,-210.67 1346,-210.67 1346,-206.83 1349.83,-203 1353.67,-203 1353.67,-203 1619.33,-203 1619.33,-203 1623.17,-203 1627,-206.83 1627,-210.67 1627,-210.67 1627,-218.33 1627,-218.33 1627,-222.17 1623.17,-226 1619.33,-226"/>
<text text-anchor="middle" x="1486.5" y="-210.8" font-family="Arial" font-size="14.00" fill="#ff6c60">DomainLogicStepUpLevelAlertServerless</text>
</g>
<!-- DomainLogicStepUpLevelAlert&#45;&gt;DomainLogicStepUpLevelAlertServerless -->
<g id="edge29" class="edge">
<title>DomainLogicStepUpLevelAlert&#45;&gt;DomainLogicStepUpLevelAlertServerless</title>
<path fill="none" stroke="#757575" d="M1309.22,-207.94C1317.84,-207.85 1326.66,-207.79 1335.52,-207.76"/>
<polygon fill="#757575" stroke="#757575" points="1335.54,-211.26 1345.54,-207.75 1335.53,-204.26 1335.54,-211.26"/>
</g>
<!-- DomainLogicCloseAlert -->
<g id="node5" class="node">
<title>DomainLogicCloseAlert</title>
<path fill="none" stroke="#c6c5fe" d="M1278.83,-268C1278.83,-268 1127.17,-268 1127.17,-268 1123.33,-268 1119.5,-264.17 1119.5,-260.33 1119.5,-260.33 1119.5,-252.67 1119.5,-252.67 1119.5,-248.83 1123.33,-245 1127.17,-245 1127.17,-245 1278.83,-245 1278.83,-245 1282.67,-245 1286.5,-248.83 1286.5,-252.67 1286.5,-252.67 1286.5,-260.33 1286.5,-260.33 1286.5,-264.17 1282.67,-268 1278.83,-268"/>
<text text-anchor="middle" x="1203" y="-252.8" font-family="Arial" font-size="14.00" fill="#c6c5fe">DomainLogicCloseAlert</text>
</g>
<!-- DomainLogicCloseAlertServerless -->
<g id="node6" class="node">
<title>DomainLogicCloseAlertServerless</title>
<path fill="none" stroke="#c6c5fe" d="M1596.83,-268C1596.83,-268 1376.17,-268 1376.17,-268 1372.33,-268 1368.5,-264.17 1368.5,-260.33 1368.5,-260.33 1368.5,-252.67 1368.5,-252.67 1368.5,-248.83 1372.33,-245 1376.17,-245 1376.17,-245 1596.83,-245 1596.83,-245 1600.67,-245 1604.5,-248.83 1604.5,-252.67 1604.5,-252.67 1604.5,-260.33 1604.5,-260.33 1604.5,-264.17 1600.67,-268 1596.83,-268"/>
<text text-anchor="middle" x="1486.5" y="-252.8" font-family="Arial" font-size="14.00" fill="#c6c5fe">DomainLogicCloseAlertServerless</text>
</g>
<!-- DomainLogicCloseAlert&#45;&gt;DomainLogicCloseAlertServerless -->
<g id="edge4" class="edge">
<title>DomainLogicCloseAlert&#45;&gt;DomainLogicCloseAlertServerless</title>
<path fill="none" stroke="#757575" d="M1286.56,-256.5C1309.09,-256.5 1334.03,-256.5 1358.42,-256.5"/>
<polygon fill="#757575" stroke="#757575" points="1358.46,-260 1368.46,-256.5 1358.46,-253 1358.46,-260"/>
</g>
<!-- DomainLogicCloseAlertServerless&#45;&gt;PersistanceAdapterGetAlert -->
<g id="edge5" class="edge">
<title>DomainLogicCloseAlertServerless&#45;&gt;PersistanceAdapterGetAlert</title>
<path fill="none" stroke="#757575" d="M1579.48,-268.02C1618.74,-272.93 1664.7,-278.68 1705,-283.73"/>
<polygon fill="#757575" stroke="#757575" points="1704.75,-287.23 1715.11,-285 1705.62,-280.28 1704.75,-287.23"/>
</g>
<!-- PersistanceAdapterGetAlertPerson -->
<g id="node7" class="node">
<title>PersistanceAdapterGetAlertPerson</title>
<path fill="none" stroke="#cfffac" d="M1920.33,-349C1920.33,-349 1695.67,-349 1695.67,-349 1691.83,-349 1688,-345.17 1688,-341.33 1688,-341.33 1688,-333.67 1688,-333.67 1688,-329.83 1691.83,-326 1695.67,-326 1695.67,-326 1920.33,-326 1920.33,-326 1924.17,-326 1928,-329.83 1928,-333.67 1928,-333.67 1928,-341.33 1928,-341.33 1928,-345.17 1924.17,-349 1920.33,-349"/>
<text text-anchor="middle" x="1808" y="-333.8" font-family="Arial" font-size="14.00" fill="#cfffac">PersistanceAdapterGetAlertPerson</text>
</g>
<!-- DomainLogicCloseAlertServerless&#45;&gt;PersistanceAdapterGetAlertPerson -->
<g id="edge6" class="edge">
<title>DomainLogicCloseAlertServerless&#45;&gt;PersistanceAdapterGetAlertPerson</title>
<path fill="none" stroke="#757575" d="M1515.26,-268.06C1549.44,-281.84 1609.53,-304.63 1663,-317.5 1673.43,-320.01 1684.36,-322.24 1695.34,-324.21"/>
<polygon fill="#757575" stroke="#757575" points="1694.98,-327.7 1705.43,-325.95 1696.17,-320.8 1694.98,-327.7"/>
</g>
<!-- PersistanceAdapterModifyAlertIfNotClosed -->
<g id="node8" class="node">
<title>PersistanceAdapterModifyAlertIfNotClosed</title>
<path fill="none" stroke="#cfffac" d="M1945.33,-267C1945.33,-267 1670.67,-267 1670.67,-267 1666.83,-267 1663,-263.17 1663,-259.33 1663,-259.33 1663,-251.67 1663,-251.67 1663,-247.83 1666.83,-244 1670.67,-244 1670.67,-244 1945.33,-244 1945.33,-244 1949.17,-244 1953,-247.83 1953,-251.67 1953,-251.67 1953,-259.33 1953,-259.33 1953,-263.17 1949.17,-267 1945.33,-267"/>
<text text-anchor="middle" x="1808" y="-251.8" font-family="Arial" font-size="14.00" fill="#cfffac">PersistanceAdapterModifyAlertIfNotClosed</text>
</g>
<!-- DomainLogicCloseAlertServerless&#45;&gt;PersistanceAdapterModifyAlertIfNotClosed -->
<g id="edge7" class="edge">
<title>DomainLogicCloseAlertServerless&#45;&gt;PersistanceAdapterModifyAlertIfNotClosed</title>
<path fill="none" stroke="#757575" d="M1604.66,-256.13C1620.36,-256.08 1636.66,-256.03 1652.89,-255.98"/>
<polygon fill="#757575" stroke="#757575" points="1652.98,-259.48 1662.97,-255.95 1652.96,-252.48 1652.98,-259.48"/>
</g>
<!-- DomainLogicCreateAlert -->
<g id="node9" class="node">
<title>DomainLogicCreateAlert</title>
<path fill="none" stroke="#c6c5fe" d="M745.33,-164C745.33,-164 587.67,-164 587.67,-164 583.83,-164 580,-160.17 580,-156.33 580,-156.33 580,-148.67 580,-148.67 580,-144.83 583.83,-141 587.67,-141 587.67,-141 745.33,-141 745.33,-141 749.17,-141 753,-144.83 753,-148.67 753,-148.67 753,-156.33 753,-156.33 753,-160.17 749.17,-164 745.33,-164"/>
<text text-anchor="middle" x="666.5" y="-148.8" font-family="Arial" font-size="14.00" fill="#c6c5fe">DomainLogicCreateAlert</text>
</g>
<!-- DomainLogicCreateAlertServerless -->
<g id="node10" class="node">
<title>DomainLogicCreateAlertServerless</title>
<path fill="none" stroke="#c6c5fe" d="M1052.33,-164C1052.33,-164 826.67,-164 826.67,-164 822.83,-164 819,-160.17 819,-156.33 819,-156.33 819,-148.67 819,-148.67 819,-144.83 822.83,-141 826.67,-141 826.67,-141 1052.33,-141 1052.33,-141 1056.17,-141 1060,-144.83 1060,-148.67 1060,-148.67 1060,-156.33 1060,-156.33 1060,-160.17 1056.17,-164 1052.33,-164"/>
<text text-anchor="middle" x="939.5" y="-148.8" font-family="Arial" font-size="14.00" fill="#c6c5fe">DomainLogicCreateAlertServerless</text>
</g>
<!-- DomainLogicCreateAlert&#45;&gt;DomainLogicCreateAlertServerless -->
<g id="edge8" class="edge">
<title>DomainLogicCreateAlert&#45;&gt;DomainLogicCreateAlertServerless</title>
<path fill="none" stroke="#757575" d="M753.25,-152.5C770.86,-152.5 789.78,-152.5 808.55,-152.5"/>
<polygon fill="#757575" stroke="#757575" points="808.65,-156 818.65,-152.5 808.65,-149 808.65,-156"/>
</g>
<!-- DomainLogicCreateAlertServerless&#45;&gt;DomainLogicStepUpLevelAlert -->
<g id="edge11" class="edge">
<title>DomainLogicCreateAlertServerless&#45;&gt;DomainLogicStepUpLevelAlert</title>
<path fill="none" stroke="#757575" d="M989.07,-164.02C1032.69,-174.36 1096.84,-189.57 1143.31,-200.59"/>
<polygon fill="#757575" stroke="#757575" points="1142.71,-204.04 1153.24,-202.94 1144.32,-197.23 1142.71,-204.04"/>
</g>
<!-- PersistanceAdapterGetServices -->
<g id="node11" class="node">
<title>PersistanceAdapterGetServices</title>
<path fill="none" stroke="#cfffac" d="M2516.83,-103C2516.83,-103 2311.17,-103 2311.17,-103 2307.33,-103 2303.5,-99.17 2303.5,-95.33 2303.5,-95.33 2303.5,-87.67 2303.5,-87.67 2303.5,-83.83 2307.33,-80 2311.17,-80 2311.17,-80 2516.83,-80 2516.83,-80 2520.67,-80 2524.5,-83.83 2524.5,-87.67 2524.5,-87.67 2524.5,-95.33 2524.5,-95.33 2524.5,-99.17 2520.67,-103 2516.83,-103"/>
<text text-anchor="middle" x="2414" y="-87.8" font-family="Arial" font-size="14.00" fill="#cfffac">PersistanceAdapterGetServices</text>
</g>
<!-- DomainLogicCreateAlertServerless&#45;&gt;PersistanceAdapterGetServices -->
<g id="edge9" class="edge">
<title>DomainLogicCreateAlertServerless&#45;&gt;PersistanceAdapterGetServices</title>
<path fill="none" stroke="#757575" d="M977.07,-140.91C1064.17,-114.38 1291.12,-51.5 1485.5,-51.5 1485.5,-51.5 1485.5,-51.5 1809,-51.5 1977.91,-51.5 2172.82,-67.27 2294.49,-79"/>
<polygon fill="#757575" stroke="#757575" points="2294.29,-82.5 2304.58,-79.98 2294.96,-75.53 2294.29,-82.5"/>
</g>
<!-- PersistanceAdapterCreateAlert -->
<g id="node12" class="node">
<title>PersistanceAdapterCreateAlert</title>
<path fill="none" stroke="#cfffac" d="M1302.33,-164C1302.33,-164 1103.67,-164 1103.67,-164 1099.83,-164 1096,-160.17 1096,-156.33 1096,-156.33 1096,-148.67 1096,-148.67 1096,-144.83 1099.83,-141 1103.67,-141 1103.67,-141 1302.33,-141 1302.33,-141 1306.17,-141 1310,-144.83 1310,-148.67 1310,-148.67 1310,-156.33 1310,-156.33 1310,-160.17 1306.17,-164 1302.33,-164"/>
<text text-anchor="middle" x="1203" y="-148.8" font-family="Arial" font-size="14.00" fill="#cfffac">PersistanceAdapterCreateAlert</text>
</g>
<!-- DomainLogicCreateAlertServerless&#45;&gt;PersistanceAdapterCreateAlert -->
<g id="edge10" class="edge">
<title>DomainLogicCreateAlertServerless&#45;&gt;PersistanceAdapterCreateAlert</title>
<path fill="none" stroke="#757575" d="M1060.15,-152.5C1068.57,-152.5 1077.04,-152.5 1085.44,-152.5"/>
<polygon fill="#757575" stroke="#757575" points="1085.63,-156 1095.63,-152.5 1085.63,-149 1085.63,-156"/>
</g>
<!-- DomainLogicCreateService -->
<g id="node13" class="node">
<title>DomainLogicCreateService</title>
<path fill="none" stroke="#c6c5fe" d="M190.33,-287C190.33,-287 14.67,-287 14.67,-287 10.83,-287 7,-283.17 7,-279.33 7,-279.33 7,-271.67 7,-271.67 7,-267.83 10.83,-264 14.67,-264 14.67,-264 190.33,-264 190.33,-264 194.17,-264 198,-267.83 198,-271.67 198,-271.67 198,-279.33 198,-279.33 198,-283.17 194.17,-287 190.33,-287"/>
<text text-anchor="middle" x="102.5" y="-271.8" font-family="Arial" font-size="14.00" fill="#c6c5fe">DomainLogicCreateService</text>
</g>
<!-- DomainLogicCreateServiceServerless -->
<g id="node14" class="node">
<title>DomainLogicCreateServiceServerless</title>
<path fill="none" stroke="#c6c5fe" d="M499.83,-287C499.83,-287 255.17,-287 255.17,-287 251.33,-287 247.5,-283.17 247.5,-279.33 247.5,-279.33 247.5,-271.67 247.5,-271.67 247.5,-267.83 251.33,-264 255.17,-264 255.17,-264 499.83,-264 499.83,-264 503.67,-264 507.5,-267.83 507.5,-271.67 507.5,-271.67 507.5,-279.33 507.5,-279.33 507.5,-283.17 503.67,-287 499.83,-287"/>
<text text-anchor="middle" x="377.5" y="-271.8" font-family="Arial" font-size="14.00" fill="#c6c5fe">DomainLogicCreateServiceServerless</text>
</g>
<!-- DomainLogicCreateService&#45;&gt;DomainLogicCreateServiceServerless -->
<g id="edge12" class="edge">
<title>DomainLogicCreateService&#45;&gt;DomainLogicCreateServiceServerless</title>
<path fill="none" stroke="#757575" d="M198.22,-275.5C210.86,-275.5 224.03,-275.5 237.23,-275.5"/>
<polygon fill="#757575" stroke="#757575" points="237.32,-279 247.32,-275.5 237.32,-272 237.32,-279"/>
</g>
<!-- PersistanceAdapterCreateService -->
<g id="node15" class="node">
<title>PersistanceAdapterCreateService</title>
<path fill="none" stroke="#cfffac" d="M775.33,-287C775.33,-287 557.67,-287 557.67,-287 553.83,-287 550,-283.17 550,-279.33 550,-279.33 550,-271.67 550,-271.67 550,-267.83 553.83,-264 557.67,-264 557.67,-264 775.33,-264 775.33,-264 779.17,-264 783,-267.83 783,-271.67 783,-271.67 783,-279.33 783,-279.33 783,-283.17 779.17,-287 775.33,-287"/>
<text text-anchor="middle" x="666.5" y="-271.8" font-family="Arial" font-size="14.00" fill="#cfffac">PersistanceAdapterCreateService</text>
</g>
<!-- DomainLogicCreateServiceServerless&#45;&gt;PersistanceAdapterCreateService -->
<g id="edge13" class="edge">
<title>DomainLogicCreateServiceServerless&#45;&gt;PersistanceAdapterCreateService</title>
<path fill="none" stroke="#757575" d="M507.73,-275.5C518.33,-275.5 529.03,-275.5 539.6,-275.5"/>
<polygon fill="#757575" stroke="#757575" points="539.69,-279 549.69,-275.5 539.69,-272 539.69,-279"/>
</g>
<!-- DomainLogicDeleteService -->
<g id="node16" class="node">
<title>DomainLogicDeleteService</title>
<path fill="none" stroke="#c6c5fe" d="M190.33,-328C190.33,-328 14.67,-328 14.67,-328 10.83,-328 7,-324.17 7,-320.33 7,-320.33 7,-312.67 7,-312.67 7,-308.83 10.83,-305 14.67,-305 14.67,-305 190.33,-305 190.33,-305 194.17,-305 198,-308.83 198,-312.67 198,-312.67 198,-320.33 198,-320.33 198,-324.17 194.17,-328 190.33,-328"/>
<text text-anchor="middle" x="102.5" y="-312.8" font-family="Arial" font-size="14.00" fill="#c6c5fe">DomainLogicDeleteService</text>
</g>
<!-- DomainLogicDeleteServiceServerless -->
<g id="node17" class="node">
<title>DomainLogicDeleteServiceServerless</title>
<path fill="none" stroke="#c6c5fe" d="M499.33,-328C499.33,-328 255.67,-328 255.67,-328 251.83,-328 248,-324.17 248,-320.33 248,-320.33 248,-312.67 248,-312.67 248,-308.83 251.83,-305 255.67,-305 255.67,-305 499.33,-305 499.33,-305 503.17,-305 507,-308.83 507,-312.67 507,-312.67 507,-320.33 507,-320.33 507,-324.17 503.17,-328 499.33,-328"/>
<text text-anchor="middle" x="377.5" y="-312.8" font-family="Arial" font-size="14.00" fill="#c6c5fe">DomainLogicDeleteServiceServerless</text>
</g>
<!-- DomainLogicDeleteService&#45;&gt;DomainLogicDeleteServiceServerless -->
<g id="edge14" class="edge">
<title>DomainLogicDeleteService&#45;&gt;DomainLogicDeleteServiceServerless</title>
<path fill="none" stroke="#757575" d="M198.22,-316.5C210.98,-316.5 224.28,-316.5 237.61,-316.5"/>
<polygon fill="#757575" stroke="#757575" points="237.81,-320 247.81,-316.5 237.81,-313 237.81,-320"/>
</g>
<!-- PersistanceAdapterDeleteService -->
<g id="node18" class="node">
<title>PersistanceAdapterDeleteService</title>
<path fill="none" stroke="#cfffac" d="M774.83,-328C774.83,-328 558.17,-328 558.17,-328 554.33,-328 550.5,-324.17 550.5,-320.33 550.5,-320.33 550.5,-312.67 550.5,-312.67 550.5,-308.83 554.33,-305 558.17,-305 558.17,-305 774.83,-305 774.83,-305 778.67,-305 782.5,-308.83 782.5,-312.67 782.5,-312.67 782.5,-320.33 782.5,-320.33 782.5,-324.17 778.67,-328 774.83,-328"/>
<text text-anchor="middle" x="666.5" y="-312.8" font-family="Arial" font-size="14.00" fill="#cfffac">PersistanceAdapterDeleteService</text>
</g>
<!-- DomainLogicDeleteServiceServerless&#45;&gt;PersistanceAdapterDeleteService -->
<g id="edge15" class="edge">
<title>DomainLogicDeleteServiceServerless&#45;&gt;PersistanceAdapterDeleteService</title>
<path fill="none" stroke="#757575" d="M507.31,-316.5C518.15,-316.5 529.1,-316.5 539.92,-316.5"/>
<polygon fill="#757575" stroke="#757575" points="540.24,-320 550.24,-316.5 540.24,-313 540.24,-320"/>
</g>
<!-- DomainLogicGetServices -->
<g id="node19" class="node">
<title>DomainLogicGetServices</title>
<path fill="none" stroke="#c6c5fe" d="M1889.83,-23C1889.83,-23 1726.17,-23 1726.17,-23 1722.33,-23 1718.5,-19.17 1718.5,-15.33 1718.5,-15.33 1718.5,-7.67 1718.5,-7.67 1718.5,-3.83 1722.33,0 1726.17,0 1726.17,0 1889.83,0 1889.83,0 1893.67,0 1897.5,-3.83 1897.5,-7.67 1897.5,-7.67 1897.5,-15.33 1897.5,-15.33 1897.5,-19.17 1893.67,-23 1889.83,-23"/>
<text text-anchor="middle" x="1808" y="-7.8" font-family="Arial" font-size="14.00" fill="#c6c5fe">DomainLogicGetServices</text>
</g>
<!-- DomainLogicGetServicesServerless -->
<g id="node20" class="node">
<title>DomainLogicGetServicesServerless</title>
<path fill="none" stroke="#c6c5fe" d="M2234.83,-23C2234.83,-23 2002.17,-23 2002.17,-23 1998.33,-23 1994.5,-19.17 1994.5,-15.33 1994.5,-15.33 1994.5,-7.67 1994.5,-7.67 1994.5,-3.83 1998.33,0 2002.17,0 2002.17,0 2234.83,0 2234.83,0 2238.67,0 2242.5,-3.83 2242.5,-7.67 2242.5,-7.67 2242.5,-15.33 2242.5,-15.33 2242.5,-19.17 2238.67,-23 2234.83,-23"/>
<text text-anchor="middle" x="2118.5" y="-7.8" font-family="Arial" font-size="14.00" fill="#c6c5fe">DomainLogicGetServicesServerless</text>
</g>
<!-- DomainLogicGetServices&#45;&gt;DomainLogicGetServicesServerless -->
<g id="edge16" class="edge">
<title>DomainLogicGetServices&#45;&gt;DomainLogicGetServicesServerless</title>
<path fill="none" stroke="#757575" d="M1897.82,-11.5C1924.73,-11.5 1954.9,-11.5 1984.06,-11.5"/>
<polygon fill="#757575" stroke="#757575" points="1984.32,-15 1994.32,-11.5 1984.32,-8 1984.32,-15"/>
</g>
<!-- DomainLogicGetServicesServerless&#45;&gt;PersistanceAdapterGetServices -->
<g id="edge17" class="edge">
<title>DomainLogicGetServicesServerless&#45;&gt;PersistanceAdapterGetServices</title>
<path fill="none" stroke="#757575" d="M2183.89,-23C2204.49,-27.09 2227.31,-32.04 2248,-37.5 2290.65,-48.75 2338.47,-64.79 2371.6,-76.46"/>
<polygon fill="#757575" stroke="#757575" points="2370.79,-79.89 2381.39,-79.93 2373.13,-73.29 2370.79,-79.89"/>
</g>
<!-- DomainLogicModifyService -->
<g id="node21" class="node">
<title>DomainLogicModifyService</title>
<path fill="none" stroke="#c6c5fe" d="M1895.83,-185C1895.83,-185 1720.17,-185 1720.17,-185 1716.33,-185 1712.5,-181.17 1712.5,-177.33 1712.5,-177.33 1712.5,-169.67 1712.5,-169.67 1712.5,-165.83 1716.33,-162 1720.17,-162 1720.17,-162 1895.83,-162 1895.83,-162 1899.67,-162 1903.5,-165.83 1903.5,-169.67 1903.5,-169.67 1903.5,-177.33 1903.5,-177.33 1903.5,-181.17 1899.67,-185 1895.83,-185"/>
<text text-anchor="middle" x="1808" y="-169.8" font-family="Arial" font-size="14.00" fill="#c6c5fe">DomainLogicModifyService</text>
</g>
<!-- DomainLogicModifyServiceServerless -->
<g id="node22" class="node">
<title>DomainLogicModifyServiceServerless</title>
<path fill="none" stroke="#c6c5fe" d="M2240.33,-154C2240.33,-154 1996.67,-154 1996.67,-154 1992.83,-154 1989,-150.17 1989,-146.33 1989,-146.33 1989,-138.67 1989,-138.67 1989,-134.83 1992.83,-131 1996.67,-131 1996.67,-131 2240.33,-131 2240.33,-131 2244.17,-131 2248,-134.83 2248,-138.67 2248,-138.67 2248,-146.33 2248,-146.33 2248,-150.17 2244.17,-154 2240.33,-154"/>
<text text-anchor="middle" x="2118.5" y="-138.8" font-family="Arial" font-size="14.00" fill="#c6c5fe">DomainLogicModifyServiceServerless</text>
</g>
<!-- DomainLogicModifyService&#45;&gt;DomainLogicModifyServiceServerless -->
<g id="edge18" class="edge">
<title>DomainLogicModifyService&#45;&gt;DomainLogicModifyServiceServerless</title>
<path fill="none" stroke="#757575" d="M1903.66,-163.99C1931.82,-161.16 1963.12,-158.01 1992.89,-155.02"/>
<polygon fill="#757575" stroke="#757575" points="1993.32,-158.5 2002.92,-154.01 1992.62,-151.53 1993.32,-158.5"/>
</g>
<!-- DomainLogicModifyServiceServerless&#45;&gt;PersistanceAdapterGetServices -->
<g id="edge19" class="edge">
<title>DomainLogicModifyServiceServerless&#45;&gt;PersistanceAdapterGetServices</title>
<path fill="none" stroke="#757575" d="M2185.73,-130.99C2230.55,-123.2 2289.87,-112.9 2336.67,-104.76"/>
<polygon fill="#757575" stroke="#757575" points="2337.5,-108.17 2346.75,-103.01 2336.3,-101.27 2337.5,-108.17"/>
</g>
<!-- PersistanceAdapterModifyService -->
<g id="node23" class="node">
<title>PersistanceAdapterModifyService</title>
<path fill="none" stroke="#cfffac" d="M2522.33,-154C2522.33,-154 2305.67,-154 2305.67,-154 2301.83,-154 2298,-150.17 2298,-146.33 2298,-146.33 2298,-138.67 2298,-138.67 2298,-134.83 2301.83,-131 2305.67,-131 2305.67,-131 2522.33,-131 2522.33,-131 2526.17,-131 2530,-134.83 2530,-138.67 2530,-138.67 2530,-146.33 2530,-146.33 2530,-150.17 2526.17,-154 2522.33,-154"/>
<text text-anchor="middle" x="2414" y="-138.8" font-family="Arial" font-size="14.00" fill="#cfffac">PersistanceAdapterModifyService</text>
</g>
<!-- DomainLogicModifyServiceServerless&#45;&gt;PersistanceAdapterModifyService -->
<g id="edge20" class="edge">
<title>DomainLogicModifyServiceServerless&#45;&gt;PersistanceAdapterModifyService</title>
<path fill="none" stroke="#757575" d="M2248.23,-142.5C2261.24,-142.5 2274.43,-142.5 2287.4,-142.5"/>
<polygon fill="#757575" stroke="#757575" points="2287.75,-146 2297.75,-142.5 2287.75,-139 2287.75,-146"/>
</g>
<!-- DomainLogicNotifyPerson -->
<g id="node24" class="node">
<title>DomainLogicNotifyPerson</title>
<path fill="none" stroke="#c6c5fe" d="M1891.33,-226C1891.33,-226 1724.67,-226 1724.67,-226 1720.83,-226 1717,-222.17 1717,-218.33 1717,-218.33 1717,-210.67 1717,-210.67 1717,-206.83 1720.83,-203 1724.67,-203 1724.67,-203 1891.33,-203 1891.33,-203 1895.17,-203 1899,-206.83 1899,-210.67 1899,-210.67 1899,-218.33 1899,-218.33 1899,-222.17 1895.17,-226 1891.33,-226"/>
<text text-anchor="middle" x="1808" y="-210.8" font-family="Arial" font-size="14.00" fill="#c6c5fe">DomainLogicNotifyPerson</text>
</g>
<!-- DomainLogicNotifyPersonServerless -->
<g id="node25" class="node">
<title>DomainLogicNotifyPersonServerless</title>
<path fill="none" stroke="#c6c5fe" d="M2236.33,-215C2236.33,-215 2000.67,-215 2000.67,-215 1996.83,-215 1993,-211.17 1993,-207.33 1993,-207.33 1993,-199.67 1993,-199.67 1993,-195.83 1996.83,-192 2000.67,-192 2000.67,-192 2236.33,-192 2236.33,-192 2240.17,-192 2244,-195.83 2244,-199.67 2244,-199.67 2244,-207.33 2244,-207.33 2244,-211.17 2240.17,-215 2236.33,-215"/>
<text text-anchor="middle" x="2118.5" y="-199.8" font-family="Arial" font-size="14.00" fill="#c6c5fe">DomainLogicNotifyPersonServerless</text>
</g>
<!-- DomainLogicNotifyPerson&#45;&gt;DomainLogicNotifyPersonServerless -->
<g id="edge21" class="edge">
<title>DomainLogicNotifyPerson&#45;&gt;DomainLogicNotifyPersonServerless</title>
<path fill="none" stroke="#757575" d="M1899.06,-211.29C1925.2,-210.36 1954.32,-209.32 1982.57,-208.31"/>
<polygon fill="#757575" stroke="#757575" points="1983.06,-211.8 1992.93,-207.94 1982.81,-204.8 1983.06,-211.8"/>
</g>
<!-- DomainLogicNotifyPersonServerless&#45;&gt;PersistanceAdapterGetServices -->
<g id="edge25" class="edge">
<title>DomainLogicNotifyPersonServerless&#45;&gt;PersistanceAdapterGetServices</title>
<path fill="none" stroke="#757575" d="M2178.11,-191.95C2201.15,-185.64 2227.04,-176.22 2248,-162.5 2268.29,-149.22 2263.19,-133.95 2284,-121.5 2294.74,-115.07 2306.75,-110.02 2319,-106.05"/>
<polygon fill="#757575" stroke="#757575" points="2320.28,-109.32 2328.85,-103.09 2318.27,-102.61 2320.28,-109.32"/>
</g>
<!-- DomainLogicNotifyPersonServerless&#45;&gt;PersistanceAdapterModifyService -->
<g id="edge26" class="edge">
<title>DomainLogicNotifyPersonServerless&#45;&gt;PersistanceAdapterModifyService</title>
<path fill="none" stroke="#757575" d="M2161.52,-191.91C2194.62,-183.05 2242.02,-170.97 2284,-162.5 2296.01,-160.08 2308.7,-157.79 2321.24,-155.68"/>
<polygon fill="#757575" stroke="#757575" points="2321.96,-159.11 2331.26,-154.03 2320.82,-152.2 2321.96,-159.11"/>
</g>
<!-- MailAdapterSendEmail -->
<g id="node26" class="node">
<title>MailAdapterSendEmail</title>
<path fill="none" stroke="#cfffac" d="M2486.83,-277C2486.83,-277 2341.17,-277 2341.17,-277 2337.33,-277 2333.5,-273.17 2333.5,-269.33 2333.5,-269.33 2333.5,-261.67 2333.5,-261.67 2333.5,-257.83 2337.33,-254 2341.17,-254 2341.17,-254 2486.83,-254 2486.83,-254 2490.67,-254 2494.5,-257.83 2494.5,-261.67 2494.5,-261.67 2494.5,-269.33 2494.5,-269.33 2494.5,-273.17 2490.67,-277 2486.83,-277"/>
<text text-anchor="middle" x="2414" y="-261.8" font-family="Arial" font-size="14.00" fill="#cfffac">MailAdapterSendEmail</text>
</g>
<!-- DomainLogicNotifyPersonServerless&#45;&gt;MailAdapterSendEmail -->
<g id="edge22" class="edge">
<title>DomainLogicNotifyPersonServerless&#45;&gt;MailAdapterSendEmail</title>
<path fill="none" stroke="#757575" d="M2161.54,-215C2194.65,-223.81 2242.05,-235.87 2284,-244.5 2297.41,-247.26 2311.67,-249.88 2325.63,-252.28"/>
<polygon fill="#757575" stroke="#757575" points="2325.28,-255.78 2335.73,-253.99 2326.45,-248.87 2325.28,-255.78"/>
</g>
<!-- SMSAdapterSendSMS -->
<g id="node27" class="node">
<title>SMSAdapterSendSMS</title>
<path fill="none" stroke="#cfffac" d="M2487.33,-236C2487.33,-236 2340.67,-236 2340.67,-236 2336.83,-236 2333,-232.17 2333,-228.33 2333,-228.33 2333,-220.67 2333,-220.67 2333,-216.83 2336.83,-213 2340.67,-213 2340.67,-213 2487.33,-213 2487.33,-213 2491.17,-213 2495,-216.83 2495,-220.67 2495,-220.67 2495,-228.33 2495,-228.33 2495,-232.17 2491.17,-236 2487.33,-236"/>
<text text-anchor="middle" x="2414" y="-220.8" font-family="Arial" font-size="14.00" fill="#cfffac">SMSAdapterSendSMS</text>
</g>
<!-- DomainLogicNotifyPersonServerless&#45;&gt;SMSAdapterSendSMS -->
<g id="edge23" class="edge">
<title>DomainLogicNotifyPersonServerless&#45;&gt;SMSAdapterSendSMS</title>
<path fill="none" stroke="#757575" d="M2244.4,-212.44C2270.72,-214.32 2298.01,-216.27 2322.77,-218.04"/>
<polygon fill="#757575" stroke="#757575" points="2322.62,-221.54 2332.85,-218.77 2323.12,-214.56 2322.62,-221.54"/>
</g>
<!-- PersistanceAdapterCreateAlertPerson -->
<g id="node28" class="node">
<title>PersistanceAdapterCreateAlertPerson</title>
<path fill="none" stroke="#cfffac" d="M2536.33,-195C2536.33,-195 2291.67,-195 2291.67,-195 2287.83,-195 2284,-191.17 2284,-187.33 2284,-187.33 2284,-179.67 2284,-179.67 2284,-175.83 2287.83,-172 2291.67,-172 2291.67,-172 2536.33,-172 2536.33,-172 2540.17,-172 2544,-175.83 2544,-179.67 2544,-179.67 2544,-187.33 2544,-187.33 2544,-191.17 2540.17,-195 2536.33,-195"/>
<text text-anchor="middle" x="2414" y="-179.8" font-family="Arial" font-size="14.00" fill="#cfffac">PersistanceAdapterCreateAlertPerson</text>
</g>
<!-- DomainLogicNotifyPersonServerless&#45;&gt;PersistanceAdapterCreateAlertPerson -->
<g id="edge24" class="edge">
<title>DomainLogicNotifyPersonServerless&#45;&gt;PersistanceAdapterCreateAlertPerson</title>
<path fill="none" stroke="#757575" d="M2244.4,-194.99C2254.12,-194.33 2263.98,-193.65 2273.79,-192.99"/>
<polygon fill="#757575" stroke="#757575" points="2274.26,-196.46 2284,-192.29 2273.78,-189.48 2274.26,-196.46"/>
</g>
<!-- DomainLogicReceiveTimeout -->
<g id="node29" class="node">
<title>DomainLogicReceiveTimeout</title>
<path fill="none" stroke="#c6c5fe" d="M197.33,-246C197.33,-246 7.67,-246 7.67,-246 3.83,-246 0,-242.17 0,-238.33 0,-238.33 0,-230.67 0,-230.67 0,-226.83 3.83,-223 7.67,-223 7.67,-223 197.33,-223 197.33,-223 201.17,-223 205,-226.83 205,-230.67 205,-230.67 205,-238.33 205,-238.33 205,-242.17 201.17,-246 197.33,-246"/>
<text text-anchor="middle" x="102.5" y="-230.8" font-family="Arial" font-size="14.00" fill="#c6c5fe">DomainLogicReceiveTimeout</text>
</g>
<!-- DomainLogicReceiveTimeoutServerless -->
<g id="node30" class="node">
<title>DomainLogicReceiveTimeoutServerless</title>
<path fill="none" stroke="#c6c5fe" d="M506.33,-246C506.33,-246 248.67,-246 248.67,-246 244.83,-246 241,-242.17 241,-238.33 241,-238.33 241,-230.67 241,-230.67 241,-226.83 244.83,-223 248.67,-223 248.67,-223 506.33,-223 506.33,-223 510.17,-223 514,-226.83 514,-230.67 514,-230.67 514,-238.33 514,-238.33 514,-242.17 510.17,-246 506.33,-246"/>
<text text-anchor="middle" x="377.5" y="-230.8" font-family="Arial" font-size="14.00" fill="#c6c5fe">DomainLogicReceiveTimeoutServerless</text>
</g>
<!-- DomainLogicReceiveTimeout&#45;&gt;DomainLogicReceiveTimeoutServerless -->
<g id="edge27" class="edge">
<title>DomainLogicReceiveTimeout&#45;&gt;DomainLogicReceiveTimeoutServerless</title>
<path fill="none" stroke="#757575" d="M205.16,-234.5C213.55,-234.5 222.12,-234.5 230.75,-234.5"/>
<polygon fill="#757575" stroke="#757575" points="230.89,-238 240.89,-234.5 230.89,-231 230.89,-238"/>
</g>
<!-- DomainLogicReceiveTimeoutServerless&#45;&gt;DomainLogicCheckAlert -->
<g id="edge28" class="edge">
<title>DomainLogicReceiveTimeoutServerless&#45;&gt;DomainLogicCheckAlert</title>
<path fill="none" stroke="#757575" d="M514.02,-234.5C533.36,-234.5 552.91,-234.5 571.23,-234.5"/>
<polygon fill="#757575" stroke="#757575" points="571.28,-238 581.28,-234.5 571.28,-231 571.28,-238"/>
</g>
<!-- DomainLogicStepUpLevelAlertServerless&#45;&gt;PersistanceAdapterGetAlert -->
<g id="edge33" class="edge">
<title>DomainLogicStepUpLevelAlertServerless&#45;&gt;PersistanceAdapterGetAlert</title>
<path fill="none" stroke="#757575" d="M1605.15,-226.07C1612.74,-228.67 1620.1,-231.79 1627,-235.5 1648.06,-246.83 1641.91,-264.21 1663,-275.5 1674.63,-281.72 1687.5,-286.28 1700.62,-289.59"/>
<polygon fill="#757575" stroke="#757575" points="1700.17,-293.08 1710.69,-291.89 1701.72,-286.25 1700.17,-293.08"/>
</g>
<!-- DomainLogicStepUpLevelAlertServerless&#45;&gt;DomainLogicStepUpLevelAlert -->
<g id="edge35" class="edge">
<title>DomainLogicStepUpLevelAlertServerless&#45;&gt;DomainLogicStepUpLevelAlert</title>
<path fill="none" stroke="#757575" d="M1345.54,-221.25C1336.76,-221.25 1327.97,-221.22 1319.31,-221.15"/>
<polygon fill="#757575" stroke="#757575" points="1319.25,-217.65 1309.22,-221.06 1319.19,-224.65 1319.25,-217.65"/>
</g>
<!-- DomainLogicStepUpLevelAlertServerless&#45;&gt;PersistanceAdapterModifyAlertIfNotClosed -->
<g id="edge32" class="edge">
<title>DomainLogicStepUpLevelAlertServerless&#45;&gt;PersistanceAdapterModifyAlertIfNotClosed</title>
<path fill="none" stroke="#757575" d="M1577.35,-226.03C1617.76,-231.22 1665.61,-237.36 1707.14,-242.68"/>
<polygon fill="#757575" stroke="#757575" points="1706.91,-246.18 1717.27,-243.99 1707.8,-239.24 1706.91,-246.18"/>
</g>
<!-- DomainLogicStepUpLevelAlertServerless&#45;&gt;DomainLogicNotifyPerson -->
<g id="edge34" class="edge">
<title>DomainLogicStepUpLevelAlertServerless&#45;&gt;DomainLogicNotifyPerson</title>
<path fill="none" stroke="#757575" d="M1627.17,-214.5C1653.88,-214.5 1681.36,-214.5 1706.54,-214.5"/>
<polygon fill="#757575" stroke="#757575" points="1706.81,-218 1716.81,-214.5 1706.81,-211 1706.81,-218"/>
</g>
<!-- TimerAdapterCreateTimerMock -->
<g id="node32" class="node">
<title>TimerAdapterCreateTimerMock</title>
<path fill="none" stroke="#cfffac" d="M1908.83,-144C1908.83,-144 1707.17,-144 1707.17,-144 1703.33,-144 1699.5,-140.17 1699.5,-136.33 1699.5,-136.33 1699.5,-128.67 1699.5,-128.67 1699.5,-124.83 1703.33,-121 1707.17,-121 1707.17,-121 1908.83,-121 1908.83,-121 1912.67,-121 1916.5,-124.83 1916.5,-128.67 1916.5,-128.67 1916.5,-136.33 1916.5,-136.33 1916.5,-140.17 1912.67,-144 1908.83,-144"/>
<text text-anchor="middle" x="1808" y="-128.8" font-family="Arial" font-size="14.00" fill="#cfffac">TimerAdapterCreateTimerMock</text>
</g>
<!-- DomainLogicStepUpLevelAlertServerless&#45;&gt;TimerAdapterCreateTimerMock -->
<g id="edge30" class="edge">
<title>DomainLogicStepUpLevelAlertServerless&#45;&gt;TimerAdapterCreateTimerMock</title>
<path fill="none" stroke="#757575" d="M1514.64,-202.98C1548.69,-188.98 1609.15,-165.61 1663,-152.5 1673.33,-149.99 1684.15,-147.76 1695.03,-145.79"/>
<polygon fill="#757575" stroke="#757575" points="1695.78,-149.21 1705.03,-144.05 1694.58,-142.32 1695.78,-149.21"/>
</g>
<!-- PersistanceAdapterModifyAlert -->
<g id="node33" class="node">
<title>PersistanceAdapterModifyAlert</title>
<path fill="none" stroke="#cfffac" d="M1906.83,-103C1906.83,-103 1709.17,-103 1709.17,-103 1705.33,-103 1701.5,-99.17 1701.5,-95.33 1701.5,-95.33 1701.5,-87.67 1701.5,-87.67 1701.5,-83.83 1705.33,-80 1709.17,-80 1709.17,-80 1906.83,-80 1906.83,-80 1910.67,-80 1914.5,-83.83 1914.5,-87.67 1914.5,-87.67 1914.5,-95.33 1914.5,-95.33 1914.5,-99.17 1910.67,-103 1906.83,-103"/>
<text text-anchor="middle" x="1808" y="-87.8" font-family="Arial" font-size="14.00" fill="#cfffac">PersistanceAdapterModifyAlert</text>
</g>
<!-- DomainLogicStepUpLevelAlertServerless&#45;&gt;PersistanceAdapterModifyAlert -->
<g id="edge31" class="edge">
<title>DomainLogicStepUpLevelAlertServerless&#45;&gt;PersistanceAdapterModifyAlert</title>
<path fill="none" stroke="#757575" d="M1502.45,-202.92C1531.55,-181.06 1598.59,-133.88 1663,-111.5 1672.12,-108.33 1681.73,-105.66 1691.48,-103.42"/>
<polygon fill="#757575" stroke="#757575" points="1692.22,-106.84 1701.26,-101.31 1690.75,-99.99 1692.22,-106.84"/>
</g>
</g>
</svg>
